<svg id="_02_copy" data-name="02 copy" xmlns="http://www.w3.org/2000/svg" viewBox="0 0 1006.64 1053.85">
  <title>animemain</title>
  <polyline points="340.79 63.46 340.64 17.19 369.44 0.51 616.43 16.9 616.75 115.67" style="fill: none;stroke: #000;stroke-width: 1.00526px"/>
  <line x1="369.44" y1="0.51" x2="369.65" y2="64.76" style="fill: none;stroke: #000;stroke-width: 1.00526px"/>
  <polyline points="721.48 85.8 714.84 85.38 593.84 122.8 594.9 454.07" style="fill: none;stroke: #000;stroke-width: 1.00526px"/>
  <polyline points="915.49 318.15 914.78 98.26 847.53 93.92" style="fill: none;stroke: #000;stroke-width: 1.00526px"/>
  <polyline points="789.06 313.26 789.51 454.05 379.13 454.1 332.09 454.61 333.25 816.24 379.77 838.43 940.37 804.89 937.55 937.15 990.36 933.48 997.22 321.41 789.06 313.26 722.65 322.3 723.07 454.32" style="fill: none;stroke: #000;stroke-width: 1.00526px"/>
  <line x1="379.13" y1="454.1" x2="380.36" y2="838.42" style="fill: none;stroke: #000;stroke-width: 1.00526px"/>
  <polyline points="333.25 815.22 264.46 818.04 29.5 699.03 25.52 192.82 259.69 59.78 490.2 70.22 491.42 454.18" style="fill: none;stroke: #000;stroke-width: 1.00526px"/>
  <line x1="264.47" y1="818.04" x2="259.69" y2="59.79" style="fill: none;stroke: #000;stroke-width: 1.00526px"/>
  <line x1="342.36" y1="63.63" x2="343.61" y2="454.57" style="fill: none;stroke: #000;stroke-width: 1.00526px"/>
  <line x1="714.84" y1="85.38" x2="716.02" y2="454.06" style="fill: none;stroke: #000;stroke-width: 1.00526px"/>
  <polyline points="847.47 315.54 847.52 92.33 721.57 83.84 722.33 322.3 717.72 322.31 718.14 453.68" style="fill: none;stroke: #000;stroke-width: 1.00526px"/>
  <line x1="814.21" y1="314.24" x2="814.15" y2="90.08" style="fill: none;stroke: #000;stroke-width: 1.00526px"/>
  <line x1="381.4" y1="65.29" x2="382.65" y2="454.09" style="fill: none;stroke: #000;stroke-width: 1.00526px"/>
  <polyline points="29.46 695.17 11.33 695.84 13.14 784.84 302.73 992.56 934.19 940.75 937.14 809.15 301.05 848.11 11.33 695.84" style="fill: none;stroke: #000;stroke-width: 1.00526px"/>
  <line x1="301.05" y1="848.11" x2="302.73" y2="992.56" style="fill: none;stroke: #000;stroke-width: 1.00526px"/>
  <polygon points="356.82 469.69 379.18 469.61 450.72 469.39 450.98 550.03 379.44 551.1 357.07 548.84 356.82 469.69" style="fill: none;stroke: #000;stroke-width: 1.00526px"/>
  <line x1="363.02" y1="469.66" x2="363.28" y2="549.47" style="fill: none;stroke: #000;stroke-width: 1.00526px"/>
  <line x1="447.61" y1="469.39" x2="447.87" y2="549.91" style="fill: none;stroke: #000;stroke-width: 1.00526px"/>
  <polygon points="476.17 540.7 476.2 550.79 787.38 544.75 787.36 536.61 476.17 540.7" style="fill: none;stroke: #000;stroke-width: 1.00526px"/>
  <polygon points="451.32 657.58 451.42 689.01 940.67 670.37 940.58 642.82 451.32 657.58" style="fill: none;stroke: #000;stroke-width: 1.00526px"/>
  <polygon points="451.52 719.21 451.62 750.64 940.85 726.77 940.76 699.22 451.52 719.21" style="fill: none;stroke: #000;stroke-width: 1.00526px"/>
  <polygon points="451.74 788.19 451.76 795.03 940.99 769.62 940.97 763.11 451.74 788.19" style="fill: none;stroke: #000;stroke-width: 1.00526px"/>
  <polyline points="333.11 771.65 300.15 772.86 300.2 788.46 333.16 787.33" style="fill: none;stroke: #000;stroke-width: 1.00526px"/>
  <polyline points="332.9 705.93 299.94 707.15 299.99 722.74 332.95 721.61" style="fill: none;stroke: #000;stroke-width: 1.00526px"/>
  <polyline points="332.71 647.28 299.16 648.49 299.21 664.09 332.76 662.95" style="fill: none;stroke: #000;stroke-width: 1.00526px"/>
  <polyline points="332.5 583.09 298.37 583.79 298.42 599.39 332.55 598.77" style="fill: none;stroke: #000;stroke-width: 1.00526px"/>
  <polyline points="332.29 516.33 297.57 517.03 297.6 526.34 332.32 525.71" style="fill: none;stroke: #000;stroke-width: 1.00526px"/>
  <polyline points="332.09 454.61 297.96 454.72 297.99 464.03 332.12 464" style="fill: none;stroke: #000;stroke-width: 1.00526px"/>
  <polyline points="343.43 398.57 297.78 398.8 297.81 408.11 343.46 407.96" style="fill: none;stroke: #000;stroke-width: 1.00526px"/>
  <polyline points="343.25 342.45 297.6 342.68 297.63 351.99 343.28 351.84" style="fill: none;stroke: #000;stroke-width: 1.00526px"/>
  <polyline points="343.07 286.46 297.42 286.1 297.44 295.41 343.1 295.85" style="fill: none;stroke: #000;stroke-width: 1.00526px"/>
  <polyline points="342.89 231.01 297.24 230.06 297.27 239.37 342.92 240.4" style="fill: none;stroke: #000;stroke-width: 1.00526px"/>
  <polyline points="342.71 174.63 297.06 173.09 297.08 182.4 342.74 184.01" style="fill: none;stroke: #000;stroke-width: 1.00526px"/>
  <polyline points="989 933.57 1006.12 940.12 1006.13 944.18 283.14 1004.86 0.52 791.29 0.5 787.53 16.39 787.16" style="fill: none;stroke: #000;stroke-width: 1.00526px"/>
  <polyline points="0.5 787.53 282.84 1000.94 1006.12 940.12" style="fill: none;stroke: #000;stroke-width: 1.00526px"/>
  <polygon points="311.09 857.97 311.48 980.69 926.3 933.1 927.8 819.45 311.09 857.97" style="fill: none;stroke: #000;stroke-width: 1.00526px"/>
  <polyline points="378.53 853.76 378.91 973.01 920.16 930.19 921.14 820.01" style="fill: none;stroke: #000;stroke-width: 1.00526px"/>
  <line x1="920.16" y1="930.19" x2="926.3" y2="933.1" style="fill: none;stroke: #000;stroke-width: 1.00526px"/>
  <line x1="400.17" y1="852.4" x2="400.55" y2="971.3" style="fill: none;stroke: #000;stroke-width: 1.00526px"/>
  <line x1="421.52" y1="851.07" x2="421.9" y2="969.61" style="fill: none;stroke: #000;stroke-width: 1.00526px"/>
  <line x1="441.26" y1="849.61" x2="441.63" y2="968.05" style="fill: none;stroke: #000;stroke-width: 1.00526px"/>
  <line x1="462.61" y1="848.49" x2="462.99" y2="966.36" style="fill: none;stroke: #000;stroke-width: 1.00526px"/>
  <line x1="481.18" y1="847.35" x2="481.56" y2="964.89" style="fill: none;stroke: #000;stroke-width: 1.00526px"/>
  <line x1="500.75" y1="846.12" x2="501.13" y2="963.35" style="fill: none;stroke: #000;stroke-width: 1.00526px"/>
  <line x1="539.82" y1="844.16" x2="539.54" y2="960.31" style="fill: none;stroke: #000;stroke-width: 1.00526px"/>
  <line x1="558.42" y1="842.61" x2="558.14" y2="958.83" style="fill: none;stroke: #000;stroke-width: 1.00526px"/>
  <line x1="577.47" y1="841.38" x2="577.84" y2="957.27" style="fill: none;stroke: #000;stroke-width: 1.00526px"/>
  <line x1="596.73" y1="840.26" x2="596.45" y2="955.8" style="fill: none;stroke: #000;stroke-width: 1.00526px"/>
  <line x1="615.56" y1="839.01" x2="615.93" y2="954.26" style="fill: none;stroke: #000;stroke-width: 1.00526px"/>
  <line x1="634.27" y1="837.9" x2="634.21" y2="952.82" style="fill: none;stroke: #000;stroke-width: 1.00526px"/>
  <line x1="652.98" y1="836.57" x2="652.8" y2="951.34" style="fill: none;stroke: #000;stroke-width: 1.00526px"/>
  <line x1="671.7" y1="835.46" x2="671.18" y2="949.89" style="fill: none;stroke: #000;stroke-width: 1.00526px"/>
  <line x1="690.07" y1="834.23" x2="689.77" y2="948.42" style="fill: none;stroke: #000;stroke-width: 1.00526px"/>
  <line x1="708.79" y1="833.13" x2="708.38" y2="946.95" style="fill: none;stroke: #000;stroke-width: 1.00526px"/>
  <line x1="726.72" y1="831.79" x2="726.65" y2="945.51" style="fill: none;stroke: #000;stroke-width: 1.00526px"/>
  <line x1="745.44" y1="830.68" x2="744.91" y2="944.06" style="fill: none;stroke: #000;stroke-width: 1.00526px"/>
  <line x1="762.71" y1="829.46" x2="763.07" y2="942.62" style="fill: none;stroke: #000;stroke-width: 1.00526px"/>
  <line x1="781.42" y1="828.35" x2="780.9" y2="941.21" style="fill: none;stroke: #000;stroke-width: 1.00526px"/>
  <line x1="799.14" y1="827.24" x2="799.5" y2="939.74" style="fill: none;stroke: #000;stroke-width: 1.00526px"/>
  <line x1="817.18" y1="826.3" x2="816.65" y2="938.38" style="fill: none;stroke: #000;stroke-width: 1.00526px"/>
  <line x1="834.68" y1="825.24" x2="835.04" y2="936.93" style="fill: none;stroke: #000;stroke-width: 1.00526px"/>
  <line x1="852.17" y1="824.3" x2="851.53" y2="935.55" style="fill: none;stroke: #000;stroke-width: 1.00526px"/>
  <line x1="869.89" y1="823.25" x2="869.81" y2="934.18" style="fill: none;stroke: #000;stroke-width: 1.00526px"/>
  <line x1="887.05" y1="821.98" x2="886.3" y2="932.87" style="fill: none;stroke: #000;stroke-width: 1.00526px"/>
  <line x1="903.66" y1="821.03" x2="903.01" y2="931.55" style="fill: none;stroke: #000;stroke-width: 1.00526px"/>
  <line x1="920.72" y1="866.1" x2="378.69" y2="904.16" style="fill: none;stroke: #000;stroke-width: 1.00526px"/>
  <line x1="920.78" y1="880.94" x2="378.74" y2="919" style="fill: none;stroke: #000;stroke-width: 1.00526px"/>
  <line x1="483.82" y1="69.93" x2="485.05" y2="453.76" style="fill: none;stroke: #000;stroke-width: 1.00526px"/>
  <line x1="565.67" y1="13.44" x2="565.36" y2="453.51" style="fill: none;stroke: #000;stroke-width: 1.00526px"/>
  <polyline points="745.86 453.59 745.84 448.32 943.14 447.69 943.17 454.75 789.51 454.05" style="fill: none;stroke: #000;stroke-width: 1.00526px"/>
  <polygon points="745.72 410.34 745.75 419.41 789.4 417.93 941.71 418.79 941.67 409.71 789.37 407.85 745.72 410.34" style="fill: none;stroke: #000;stroke-width: 1.00526px"/>
  <polygon points="746.05 355.88 746.07 363.95 789.21 361.13 942.88 364 942.85 355.25 789.18 351.71 746.05 355.88" style="fill: none;stroke: #000;stroke-width: 1.00526px"/>
  <polygon points="844.42 163.31 816.52 161.72 816.3 94.5 844.21 96.08 844.42 163.31" style="fill: none;stroke: #000;stroke-width: 1.00526px"/>
  <polygon points="844.64 231.21 816.73 229.62 816.62 194.71 844.53 196.3 844.64 231.21" style="fill: none;stroke: #000;stroke-width: 1.00526px"/>
  <polygon points="844.8 283.45 816.9 281.86 816.79 246.95 844.69 248.54 844.8 283.45" style="fill: none;stroke: #000;stroke-width: 1.00526px"/>
  <polyline points="817 314.35 816.96 299.1 844.86 300.7 844.9 315.45" style="fill: none;stroke: #000;stroke-width: 1.00526px"/>
  <line x1="816.36" y1="112.96" x2="844.26" y2="114.25" style="fill: none;stroke: #000;stroke-width: 1.00526px"/>
  <line x1="816.37" y1="114.34" x2="844.27" y2="115.64" style="fill: none;stroke: #000;stroke-width: 1.00526px"/>
  <line x1="816.43" y1="135.23" x2="844.34" y2="136.87" style="fill: none;stroke: #000;stroke-width: 1.00526px"/>
  <line x1="816.44" y1="136.61" x2="844.34" y2="138.25" style="fill: none;stroke: #000;stroke-width: 1.00526px"/>
  <line x1="816.71" y1="221.05" x2="844.61" y2="222.39" style="fill: none;stroke: #000;stroke-width: 1.00526px"/>
  <line x1="816.71" y1="222.43" x2="844.61" y2="223.77" style="fill: none;stroke: #000;stroke-width: 1.00526px"/>
  <line x1="816.87" y1="272.76" x2="844.77" y2="274.1" style="fill: none;stroke: #000;stroke-width: 1.00526px"/>
  <line x1="816.88" y1="274.14" x2="844.78" y2="275.48" style="fill: none;stroke: #000;stroke-width: 1.00526px"/>
  <polyline points="847.49 247.92 885.6 249.44 885.63 258.35 847.51 256.69" style="fill: none;stroke: #000;stroke-width: 1.00526px"/>
  <polyline points="847.32 196.78 885.44 198.3 885.47 207.21 847.35 205.55" style="fill: none;stroke: #000;stroke-width: 1.00526px"/>
  <polyline points="847.65 299.81 885.77 300.51 885.79 309.42 847.68 308.58" style="fill: none;stroke: #000;stroke-width: 1.00526px"/>
  <polygon points="378.12 141.38 345.06 139.85 344.82 66.54 377.88 68.08 378.12 141.38" style="fill: none;stroke: #000;stroke-width: 1.00526px"/>
  <polygon points="378.35 213.86 345.29 212.33 345.17 175.68 378.23 177.21 378.35 213.86" style="fill: none;stroke: #000;stroke-width: 1.00526px"/>
  <polygon points="378.52 269.07 345.47 268.36 345.35 231.7 378.41 232.41 378.52 269.07" style="fill: none;stroke: #000;stroke-width: 1.00526px"/>
  <polygon points="378.7 324.75 345.65 324.04 345.53 287.38 378.59 288.1 378.7 324.75" style="fill: none;stroke: #000;stroke-width: 1.00526px"/>
  <polygon points="378.88 380.82 345.83 380.11 345.71 343.46 378.76 344.17 378.88 380.82" style="fill: none;stroke: #000;stroke-width: 1.00526px"/>
  <rect x="649.57" y="461.82" width="33.05" height="36.65" transform="translate(-305.16 -59.41) rotate(-0.18)" style="fill: none;stroke: #000;stroke-width: 1.00526px"/>
  <line x1="345.98" y1="426.52" x2="379.04" y2="426.41" style="fill: none;stroke: #000;stroke-width: 1.00526px"/>
  <line x1="345.99" y1="429.46" x2="379.05" y2="429.36" style="fill: none;stroke: #000;stroke-width: 1.00526px"/>
  <line x1="345.8" y1="370.56" x2="378.86" y2="370.45" style="fill: none;stroke: #000;stroke-width: 1.00526px"/>
  <line x1="345.81" y1="373.51" x2="378.87" y2="373.4" style="fill: none;stroke: #000;stroke-width: 1.00526px"/>
  <line x1="345.62" y1="314.68" x2="378.68" y2="314.57" style="fill: none;stroke: #000;stroke-width: 1.00526px"/>
  <line x1="345.63" y1="317.62" x2="378.69" y2="317.52" style="fill: none;stroke: #000;stroke-width: 1.00526px"/>
  <line x1="345.44" y1="258.34" x2="378.49" y2="258.99" style="fill: none;stroke: #000;stroke-width: 1.00526px"/>
  <line x1="345.45" y1="261.28" x2="378.5" y2="261.93" style="fill: none;stroke: #000;stroke-width: 1.00526px"/>
  <line x1="345.26" y1="202.41" x2="378.31" y2="203.06" style="fill: none;stroke: #000;stroke-width: 1.00526px"/>
  <line x1="345.27" y1="205.36" x2="378.32" y2="206.01" style="fill: none;stroke: #000;stroke-width: 1.00526px"/>
  <line x1="344.97" y1="110.66" x2="378.02" y2="111.31" style="fill: none;stroke: #000;stroke-width: 1.00526px"/>
  <line x1="344.89" y1="85.77" x2="377.94" y2="87.13" style="fill: none;stroke: #000;stroke-width: 1.00526px"/>
  <line x1="344.89" y1="88.71" x2="377.95" y2="90.08" style="fill: none;stroke: #000;stroke-width: 1.00526px"/>
  <line x1="375.87" y1="0.49" x2="376.08" y2="65.03" style="fill: none;stroke: #000;stroke-width: 1.00526px"/>
  <line x1="422.56" y1="3.68" x2="422.77" y2="67.64" style="fill: none;stroke: #000;stroke-width: 1.00526px"/>
  <line x1="610.32" y1="16.5" x2="610.64" y2="117.61" style="fill: none;stroke: #000;stroke-width: 1.00526px"/>
  <polyline points="382.93 996.48 383.11 1053.3 987.47 990.37 987.47 987.69 985.19 987.7 985.05 946.06" style="fill: none;stroke: #000;stroke-width: 1.00526px"/>
  <polyline points="764.98 964.38 765.12 1006.59 985.18 983.93" style="fill: none;stroke: #000;stroke-width: 1.00526px"/>
  <line x1="759.94" y1="964.84" x2="760.09" y2="1014.05" style="fill: none;stroke: #000;stroke-width: 1.00526px"/>
  <line x1="744.02" y1="966.55" x2="744.17" y2="1015.76" style="fill: none;stroke: #000;stroke-width: 1.00526px"/>
  <line x1="725.75" y1="968.17" x2="725.9" y2="1017.37" style="fill: none;stroke: #000;stroke-width: 1.00526px"/>
  <line x1="707.64" y1="969.61" x2="707.81" y2="1019.49" style="fill: none;stroke: #000;stroke-width: 1.00526px"/>
  <line x1="689.63" y1="971.05" x2="689.8" y2="1021.37" style="fill: none;stroke: #000;stroke-width: 1.00526px"/>
  <line x1="670.93" y1="972.76" x2="671.09" y2="1023.32" style="fill: none;stroke: #000;stroke-width: 1.00526px"/>
  <line x1="652.49" y1="973.86" x2="652.65" y2="1025.04" style="fill: none;stroke: #000;stroke-width: 1.00526px"/>
  <line x1="633.87" y1="975.56" x2="634.03" y2="1027.17" style="fill: none;stroke: #000;stroke-width: 1.00526px"/>
  <line x1="614.99" y1="977.09" x2="615.16" y2="1029.13" style="fill: none;stroke: #000;stroke-width: 1.00526px"/>
  <line x1="596.2" y1="978.63" x2="596.36" y2="1031.09" style="fill: none;stroke: #000;stroke-width: 1.00526px"/>
  <line x1="577.67" y1="980.25" x2="577.83" y2="1033.4" style="fill: none;stroke: #000;stroke-width: 1.00526px"/>
  <line x1="558.78" y1="981.78" x2="558.95" y2="1034.94" style="fill: none;stroke: #000;stroke-width: 1.00526px"/>
  <line x1="540.08" y1="983.75" x2="540.25" y2="1036.9" style="fill: none;stroke: #000;stroke-width: 1.00526px"/>
  <line x1="520.17" y1="985.19" x2="520.34" y2="1039.01" style="fill: none;stroke: #000;stroke-width: 1.00526px"/>
  <line x1="500.59" y1="986.73" x2="500.77" y2="1041.05" style="fill: none;stroke: #000;stroke-width: 1.00526px"/>
  <line x1="481.89" y1="988.44" x2="482.06" y2="1042.75" style="fill: none;stroke: #000;stroke-width: 1.00526px"/>
  <line x1="461.97" y1="990.23" x2="462.15" y2="1045.07" style="fill: none;stroke: #000;stroke-width: 1.00526px"/>
  <line x1="442.05" y1="991.59" x2="442.23" y2="1047.14" style="fill: none;stroke: #000;stroke-width: 1.00526px"/>
  <line x1="422.83" y1="993.39" x2="423.01" y2="1048.94" style="fill: none;stroke: #000;stroke-width: 1.00526px"/>
  <line x1="403.18" y1="994.92" x2="403.36" y2="1051.19" style="fill: none;stroke: #000;stroke-width: 1.00526px"/>
  <line x1="283.22" y1="1000.96" x2="283.23" y2="1004.85" style="fill: none;stroke: #000;stroke-width: 1.00526px"/>
  <polygon points="64.88 733.53 65.14 813.56 105.8 841.84 105.52 754.64 64.88 733.53" style="fill: none;stroke: #000;stroke-width: 1.00526px"/>
  <polyline points="70.74 736.57 70.98 813.5 105.78 837.14" style="fill: none;stroke: #000;stroke-width: 1.00526px"/>
  <line x1="65.14" y1="813.56" x2="70.98" y2="813.5" style="fill: none;stroke: #000;stroke-width: 1.00526px"/>
  <polygon points="113.11 777.99 113.14 785.61 204.17 838.46 204.15 829.94 113.11 777.99" style="fill: none;stroke: #000;stroke-width: 1.00526px"/>
  <polygon points="17.53 721.89 17.55 728.6 57.35 752.96 57.33 745.35 17.53 721.89" style="fill: none;stroke: #000;stroke-width: 1.00526px"/>
  <polygon points="17.67 766.21 17.69 772.91 57.5 800.3 57.48 792.69 17.67 766.21" style="fill: none;stroke: #000;stroke-width: 1.00526px"/>
  <polygon points="113.28 830.91 113.31 838.53 204.37 900.68 204.34 891.57 113.28 830.91" style="fill: none;stroke: #000;stroke-width: 1.00526px"/>
  <line x1="476.25" y1="657.21" x2="476.49" y2="686.23" style="fill: none;stroke: #000;stroke-width: 1.00526px"/>
  <line x1="476.94" y1="718.17" x2="477.18" y2="747.75" style="fill: none;stroke: #000;stroke-width: 1.00526px"/>
  <line x1="501.16" y1="717.68" x2="501.39" y2="746.7" style="fill: none;stroke: #000;stroke-width: 1.00526px"/>
  <line x1="537.97" y1="715.6" x2="538.2" y2="744.61" style="fill: none;stroke: #000;stroke-width: 1.00526px"/>
  <line x1="574.78" y1="714.5" x2="575.01" y2="742.73" style="fill: none;stroke: #000;stroke-width: 1.00526px"/>
  <line x1="611.1" y1="712.75" x2="611.33" y2="741.14" style="fill: none;stroke: #000;stroke-width: 1.00526px"/>
  <line x1="646.93" y1="711.32" x2="647.15" y2="739.71" style="fill: none;stroke: #000;stroke-width: 1.00526px"/>
  <line x1="694.53" y1="709.46" x2="694.76" y2="737.11" style="fill: none;stroke: #000;stroke-width: 1.00526px"/>
  <line x1="717.77" y1="708.73" x2="717.99" y2="736.51" style="fill: none;stroke: #000;stroke-width: 1.00526px"/>
  <line x1="751.64" y1="707.31" x2="751.86" y2="734.93" style="fill: none;stroke: #000;stroke-width: 1.00526px"/>
  <line x1="785.99" y1="705.89" x2="786.22" y2="733.02" style="fill: none;stroke: #000;stroke-width: 1.00526px"/>
  <line x1="820.02" y1="704.63" x2="820.25" y2="731.27" style="fill: none;stroke: #000;stroke-width: 1.00526px"/>
  <line x1="853.23" y1="703.22" x2="853.46" y2="729.86" style="fill: none;stroke: #000;stroke-width: 1.00526px"/>
  <line x1="874.67" y1="702.5" x2="874.89" y2="728.97" style="fill: none;stroke: #000;stroke-width: 1.00526px"/>
  <line x1="897.41" y1="701.28" x2="897.63" y2="727.63" style="fill: none;stroke: #000;stroke-width: 1.00526px"/>
  <line x1="919.82" y1="700.07" x2="920.04" y2="726.53" style="fill: none;stroke: #000;stroke-width: 1.00526px"/>
  <line x1="501.49" y1="656.28" x2="501.57" y2="685.37" style="fill: none;stroke: #000;stroke-width: 1.00526px"/>
  <line x1="530.01" y1="655.21" x2="530.1" y2="684.49" style="fill: none;stroke: #000;stroke-width: 1.00526px"/>
  <line x1="551.1" y1="654.9" x2="551.19" y2="683.64" style="fill: none;stroke: #000;stroke-width: 1.00526px"/>
  <line x1="575.72" y1="653.6" x2="575.82" y2="682.97" style="fill: none;stroke: #000;stroke-width: 1.00526px"/>
  <line x1="602.78" y1="652.67" x2="602.87" y2="681.71" style="fill: none;stroke: #000;stroke-width: 1.00526px"/>
  <line x1="624.14" y1="652.4" x2="624.24" y2="681.45" style="fill: none;stroke: #000;stroke-width: 1.00526px"/>
  <line x1="647.85" y1="651.54" x2="647.95" y2="680.58" style="fill: none;stroke: #000;stroke-width: 1.00526px"/>
  <line x1="671.66" y1="650.68" x2="671.75" y2="679.72" style="fill: none;stroke: #000;stroke-width: 1.00526px"/>
  <line x1="694.69" y1="650.41" x2="694.78" y2="678.58" style="fill: none;stroke: #000;stroke-width: 1.00526px"/>
  <line x1="717.91" y1="649.75" x2="718" y2="677.91" style="fill: none;stroke: #000;stroke-width: 1.00526px"/>
  <line x1="752.69" y1="648.36" x2="752.78" y2="676.53" style="fill: none;stroke: #000;stroke-width: 1.00526px"/>
  <line x1="786.5" y1="647.27" x2="786.59" y2="675.44" style="fill: none;stroke: #000;stroke-width: 1.00526px"/>
  <line x1="820.2" y1="646.38" x2="820.29" y2="673.57" style="fill: none;stroke: #000;stroke-width: 1.00526px"/>
  <line x1="853.13" y1="645.59" x2="853.21" y2="672.78" style="fill: none;stroke: #000;stroke-width: 1.00526px"/>
  <line x1="898.49" y1="643.78" x2="898.57" y2="670.96" style="fill: none;stroke: #000;stroke-width: 1.00526px"/>
  <line x1="876.54" y1="644.92" x2="876.63" y2="672.12" style="fill: none;stroke: #000;stroke-width: 1.00526px"/>
  <line x1="920.04" y1="643.42" x2="920.13" y2="669.92" style="fill: none;stroke: #000;stroke-width: 1.00526px"/>
  <line x1="940.51" y1="669.26" x2="451.4" y2="687.49" style="fill: none;stroke: #000;stroke-width: 1.00526px"/>
  <line x1="940.7" y1="725.69" x2="451.6" y2="748.84" style="fill: none;stroke: #000;stroke-width: 1.00526px"/>
  <line x1="820.64" y1="352.83" x2="820.66" y2="361.42" style="fill: none;stroke: #000;stroke-width: 1.00526px"/>
  <line x1="821.64" y1="408.2" x2="821.67" y2="418.44" style="fill: none;stroke: #000;stroke-width: 1.00526px"/>
  <line x1="855.36" y1="408.91" x2="855.39" y2="418.34" style="fill: none;stroke: #000;stroke-width: 1.00526px"/>
  <line x1="887.76" y1="409.47" x2="887.78" y2="418.73" style="fill: none;stroke: #000;stroke-width: 1.00526px"/>
  <line x1="921.48" y1="409.53" x2="921.51" y2="418.79" style="fill: none;stroke: #000;stroke-width: 1.00526px"/>
  <line x1="855.02" y1="353.87" x2="855.05" y2="362.47" style="fill: none;stroke: #000;stroke-width: 1.00526px"/>
  <line x1="888.41" y1="354.26" x2="888.43" y2="362.86" style="fill: none;stroke: #000;stroke-width: 1.00526px"/>
  <line x1="921.14" y1="354.99" x2="921.16" y2="363.58" style="fill: none;stroke: #000;stroke-width: 1.00526px"/>
  <line x1="718.05" y1="427.87" x2="722.99" y2="427.85" style="fill: none;stroke: #000;stroke-width: 1.00526px"/>
  <line x1="717.97" y1="402.08" x2="722.91" y2="402.06" style="fill: none;stroke: #000;stroke-width: 1.00526px"/>
  <line x1="717.92" y1="385.38" x2="722.85" y2="385.37" style="fill: none;stroke: #000;stroke-width: 1.00526px"/>
  <line x1="717.89" y1="375.14" x2="722.82" y2="375.12" style="fill: none;stroke: #000;stroke-width: 1.00526px"/>
  <line x1="717.8" y1="348.52" x2="722.73" y2="347.68" style="fill: none;stroke: #000;stroke-width: 1.00526px"/>
  <polygon points="690.62 163.12 679.51 165.84 679.42 139.63 690.53 136.91 690.62 163.12" style="fill: none;stroke: #000;stroke-width: 1.00526px"/>
  <polygon points="672.61 168.33 661.51 171.05 661.42 144.84 672.53 142.11 672.61 168.33" style="fill: none;stroke: #000;stroke-width: 1.00526px"/>
  <polygon points="655.07 172.6 644.55 175.32 644.47 149.1 654.98 146.38 655.07 172.6" style="fill: none;stroke: #000;stroke-width: 1.00526px"/>
  <polygon points="638 176.98 627.47 179.7 627.39 154.08 637.91 151.35 638 176.98" style="fill: none;stroke: #000;stroke-width: 1.00526px"/>
  <polygon points="621.03 181.13 611.69 183.85 611.61 158.81 620.96 156.09 621.03 181.13" style="fill: none;stroke: #000;stroke-width: 1.00526px"/>
  <polygon points="605.37 185.27 596.02 187.99 595.95 163.54 605.29 160.82 605.37 185.27" style="fill: none;stroke: #000;stroke-width: 1.00526px"/>
  <polygon points="690.8 222.11 679.7 224.83 679.62 198.62 690.72 195.89 690.8 222.11" style="fill: none;stroke: #000;stroke-width: 1.00526px"/>
  <polygon points="672.79 225.68 661.69 228.4 661.61 202.18 672.71 199.46 672.79 225.68" style="fill: none;stroke: #000;stroke-width: 1.00526px"/>
  <polygon points="655.25 229.94 644.73 232.08 644.65 206.45 655.17 203.73 655.25 229.94" style="fill: none;stroke: #000;stroke-width: 1.00526px"/>
  <polygon points="638.17 232.92 627.65 235.06 627.57 210.02 638.09 207.29 638.17 232.92" style="fill: none;stroke: #000;stroke-width: 1.00526px"/>
  <polygon points="621.21 236.14 611.87 237.68 611.79 213.81 621.13 211.09 621.21 236.14" style="fill: none;stroke: #000;stroke-width: 1.00526px"/>
  <polygon points="605.53 239.11 596.19 240.65 596.12 217.37 605.46 214.66 605.53 239.11" style="fill: none;stroke: #000;stroke-width: 1.00526px"/>
  <polygon points="690.97 273.37 679.86 276.09 679.78 249.88 690.89 247.15 690.97 273.37" style="fill: none;stroke: #000;stroke-width: 1.00526px"/>
  <polygon points="672.37 276.94 661.85 279.07 661.76 252.86 672.28 250.72 672.37 276.94" style="fill: none;stroke: #000;stroke-width: 1.00526px"/>
  <polygon points="654.48 280.27 644.54 281.82 644.46 256.19 654.4 254.06 654.48 280.27" style="fill: none;stroke: #000;stroke-width: 1.00526px"/>
  <polygon points="637.63 283.01 628.28 283.97 628.21 258.93 637.55 257.39 637.63 283.01" style="fill: none;stroke: #000;stroke-width: 1.00526px"/>
  <polygon points="621.13 285.06 611.78 286.01 611.71 262.15 621.05 260.01 621.13 285.06" style="fill: none;stroke: #000;stroke-width: 1.00526px"/>
  <polygon points="604.75 286.86 596.58 288.4 596.5 265.12 604.68 263.58 604.75 286.86" style="fill: none;stroke: #000;stroke-width: 1.00526px"/>
  <polygon points="690.55 325.81 680.03 327.36 679.94 301.14 690.46 299.59 690.55 325.81" style="fill: none;stroke: #000;stroke-width: 1.00526px"/>
  <polygon points="671.95 328.2 662.01 329.16 661.93 303.53 671.86 301.99 671.95 328.2" style="fill: none;stroke: #000;stroke-width: 1.00526px"/>
  <polygon points="654.52 330.24 644.59 330.62 644.51 306.16 654.44 304.03 654.52 330.24" style="fill: none;stroke: #000;stroke-width: 1.00526px"/>
  <polygon points="637.44 332.05 628.09 333.01 628.01 307.97 637.36 306.43 637.44 332.05" style="fill: none;stroke: #000;stroke-width: 1.00526px"/>
  <polygon points="621.75 333.27 612.41 334.23 612.33 310.36 621.68 308.23 621.75 333.27" style="fill: none;stroke: #000;stroke-width: 1.00526px"/>
  <polygon points="604.92 334.6 596.74 335.56 596.66 312.28 604.84 311.33 604.92 334.6" style="fill: none;stroke: #000;stroke-width: 1.00526px"/>
  <polygon points="690.48 377.66 679.96 378.62 679.87 352.4 690.4 351.44 690.48 377.66" style="fill: none;stroke: #000;stroke-width: 1.00526px"/>
  <polygon points="689.94 428.69 679.42 429.65 679.33 403.43 689.86 402.47 689.94 428.69" style="fill: none;stroke: #000;stroke-width: 1.00526px"/>
  <polygon points="672.27 429.56 662.33 429.93 662.25 403.72 672.19 403.35 672.27 429.56" style="fill: none;stroke: #000;stroke-width: 1.00526px"/>
  <polygon points="654.95 430.56 645.02 430.92 644.93 404.71 654.87 404.34 654.95 430.56" style="fill: none;stroke: #000;stroke-width: 1.00526px"/>
  <polygon points="637.86 430.38 627.92 430.75 627.85 405.7 637.78 405.34 637.86 430.38" style="fill: none;stroke: #000;stroke-width: 1.00526px"/>
  <polygon points="621.25 430.43 611.89 430.8 611.82 406.35 621.17 405.98 621.25 430.43" style="fill: none;stroke: #000;stroke-width: 1.00526px"/>
  <polygon points="605.21 431.52 596.45 431.89 596.38 407.44 605.13 407.07 605.21 431.52" style="fill: none;stroke: #000;stroke-width: 1.00526px"/>
  <polygon points="671.87 378.88 661.94 379.83 661.86 354.2 671.79 353.25 671.87 378.88" style="fill: none;stroke: #000;stroke-width: 1.00526px"/>
  <polygon points="654.45 380.22 644.51 380.58 644.43 355.55 654.37 354.59 654.45 380.22" style="fill: none;stroke: #000;stroke-width: 1.00526px"/>
  <polygon points="637.83 381.21 628.48 381.57 628.4 357.12 637.75 355.58 637.83 381.21" style="fill: none;stroke: #000;stroke-width: 1.00526px"/>
  <polygon points="621.45 382.43 612.09 382.21 612.02 358.34 621.37 357.39 621.45 382.43" style="fill: none;stroke: #000;stroke-width: 1.00526px"/>
  <polygon points="604.6 382.71 596.42 383.07 596.35 359.8 604.52 359.44 604.6 382.71" style="fill: none;stroke: #000;stroke-width: 1.00526px"/>
  <line x1="748" y1="355.93" x2="748.03" y2="363.89" style="fill: none;stroke: #000;stroke-width: 1.00526px"/>
  <line x1="748.18" y1="410.23" x2="748.21" y2="419.36" style="fill: none;stroke: #000;stroke-width: 1.00526px"/>
  <line x1="565.45" y1="216.54" x2="594.24" y2="217.62" style="fill: none;stroke: #000;stroke-width: 1.00526px"/>
  <line x1="565.47" y1="223.79" x2="594.26" y2="224.87" style="fill: none;stroke: #000;stroke-width: 1.00526px"/>
  <line x1="565.53" y1="240.65" x2="594.31" y2="240.56" style="fill: none;stroke: #000;stroke-width: 1.00526px"/>
  <line x1="565.6" y1="264.52" x2="594.39" y2="265.6" style="fill: none;stroke: #000;stroke-width: 1.00526px"/>
  <line x1="565.63" y1="271.78" x2="594.42" y2="272.86" style="fill: none;stroke: #000;stroke-width: 1.00526px"/>
  <line x1="565.68" y1="287.46" x2="594.47" y2="288.54" style="fill: none;stroke: #000;stroke-width: 1.00526px"/>
  <line x1="565.75" y1="311.92" x2="594.55" y2="312.41" style="fill: none;stroke: #000;stroke-width: 1.00526px"/>
  <line x1="565.77" y1="319.77" x2="594.57" y2="320.26" style="fill: none;stroke: #000;stroke-width: 1.00526px"/>
  <line x1="565.83" y1="335.45" x2="594.62" y2="335.94" style="fill: none;stroke: #000;stroke-width: 1.00526px"/>
  <line x1="565.91" y1="359.91" x2="594.7" y2="360.4" style="fill: none;stroke: #000;stroke-width: 1.00526px"/>
  <line x1="565.93" y1="367.75" x2="594.72" y2="368.24" style="fill: none;stroke: #000;stroke-width: 1.00526px"/>
  <line x1="565.98" y1="383.44" x2="594.77" y2="383.93" style="fill: none;stroke: #000;stroke-width: 1.00526px"/>
  <line x1="566.06" y1="407.31" x2="594.85" y2="407.21" style="fill: none;stroke: #000;stroke-width: 1.00526px"/>
  <line x1="566.08" y1="415.16" x2="594.87" y2="415.06" style="fill: none;stroke: #000;stroke-width: 1.00526px"/>
  <line x1="566.13" y1="430.84" x2="594.92" y2="430.74" style="fill: none;stroke: #000;stroke-width: 1.00526px"/>
  <line x1="580.12" y1="414.75" x2="580.18" y2="430.9" style="fill: none;stroke: #000;stroke-width: 1.00526px"/>
  <line x1="579.98" y1="368.17" x2="580.03" y2="384.32" style="fill: none;stroke: #000;stroke-width: 1.00526px"/>
  <line x1="579.83" y1="320.19" x2="579.87" y2="336.34" style="fill: none;stroke: #000;stroke-width: 1.00526px"/>
  <line x1="579.67" y1="272.2" x2="579.72" y2="288.35" style="fill: none;stroke: #000;stroke-width: 1.00526px"/>
  <line x1="579.52" y1="224.45" x2="579.57" y2="240.6" style="fill: none;stroke: #000;stroke-width: 1.00526px"/>
  <polyline points="490.43 179.33 549.89 181.71 549.9 186.39 490.67 183.54" style="fill: none;stroke: #000;stroke-width: 1.00526px"/>
  <line x1="513.14" y1="180.42" x2="513.15" y2="185.34" style="fill: none;stroke: #000;stroke-width: 1.00526px"/>
  <polyline points="490.6 232.35 550.05 234.14 550.07 238.82 490.84 236.56" style="fill: none;stroke: #000;stroke-width: 1.00526px"/>
  <line x1="513.3" y1="232.85" x2="513.32" y2="237.77" style="fill: none;stroke: #000;stroke-width: 1.00526px"/>
  <polyline points="490.75 280.56 550.21 282.36 550.23 287.04 491 284.78" style="fill: none;stroke: #000;stroke-width: 1.00526px"/>
  <line x1="513.46" y1="281.07" x2="513.47" y2="285.99" style="fill: none;stroke: #000;stroke-width: 1.00526px"/>
  <polyline points="490.9 328.67 550.36 329.88 550.38 334.56 491.15 332.88" style="fill: none;stroke: #000;stroke-width: 1.00526px"/>
  <line x1="513.61" y1="329.18" x2="513.63" y2="334.09" style="fill: none;stroke: #000;stroke-width: 1.00526px"/>
  <polyline points="491.06 377.12 550.52 378.33 550.53 383.01 491.3 381.33" style="fill: none;stroke: #000;stroke-width: 1.00526px"/>
  <line x1="513.76" y1="377.63" x2="513.78" y2="382.55" style="fill: none;stroke: #000;stroke-width: 1.00526px"/>
  <polyline points="491.22 426.14 550.67 426.18 550.69 430.86 491.46 430.35" style="fill: none;stroke: #000;stroke-width: 1.00526px"/>
  <line x1="513.92" y1="426.07" x2="513.94" y2="430.98" style="fill: none;stroke: #000;stroke-width: 1.00526px"/>
  <polygon points="243.58 207.13 236.82 209.69 236.73 180.65 243.48 177.87 243.58 207.13" style="fill: none;stroke: #000;stroke-width: 1.00526px"/>
  <polygon points="232.16 211.4 225.41 213.96 225.32 185.4 232.07 182.62 232.16 211.4" style="fill: none;stroke: #000;stroke-width: 1.00526px"/>
  <polygon points="220.7 215.59 213.95 218.15 213.86 190.05 220.61 187.27 220.7 215.59" style="fill: none;stroke: #000;stroke-width: 1.00526px"/>
  <polygon points="209.63 219.84 203.36 222.21 203.27 194.37 209.54 191.78 209.63 219.84" style="fill: none;stroke: #000;stroke-width: 1.00526px"/>
  <polygon points="199.09 223.83 193.41 226.07 193.32 198.79 199 196.34 199.09 223.83" style="fill: none;stroke: #000;stroke-width: 1.00526px"/>
  <polygon points="188.81 227.44 183.12 229.68 183.03 202.82 188.73 200.36 188.81 227.44" style="fill: none;stroke: #000;stroke-width: 1.00526px"/>
  <polygon points="178.99 231.02 173.32 233.15 173.38 206.8 179.05 204.46 178.99 231.02" style="fill: none;stroke: #000;stroke-width: 1.00526px"/>
  <polygon points="169.2 235.01 164.11 236.83 164.17 210.43 169.27 208.4 169.2 235.01" style="fill: none;stroke: #000;stroke-width: 1.00526px"/>
  <polygon points="159.69 238.4 155 240.21 155.06 214.57 159.75 212.54 159.69 238.4" style="fill: none;stroke: #000;stroke-width: 1.00526px"/>
  <polygon points="150.78 241.95 146.38 243.44 146.44 217.8 150.85 216.08 150.78 241.95" style="fill: none;stroke: #000;stroke-width: 1.00526px"/>
  <polygon points="142.23 244.88 138.09 246.47 138.08 221.36 142.23 219.66 142.23 244.88" style="fill: none;stroke: #000;stroke-width: 1.00526px"/>
  <polygon points="133.82 248.29 129.68 249.88 129.68 224.77 133.82 223.07 133.82 248.29" style="fill: none;stroke: #000;stroke-width: 1.00526px"/>
  <polygon points="125.21 251.19 121.07 252.78 121.06 228.53 125.21 226.83 125.21 251.19" style="fill: none;stroke: #000;stroke-width: 1.00526px"/>
  <polygon points="117.32 254.24 113.18 255.83 113.18 231.58 117.32 229.88 117.32 254.24" style="fill: none;stroke: #000;stroke-width: 1.00526px"/>
  <polygon points="109.59 257.12 105.45 258.71 105.44 234.86 109.58 233.16 109.59 257.12" style="fill: none;stroke: #000;stroke-width: 1.00526px"/>
  <polygon points="102.08 259.87 97.94 261.46 97.94 237.9 102.08 236.2 102.08 259.87" style="fill: none;stroke: #000;stroke-width: 1.00526px"/>
  <polygon points="94.83 262.54 90.69 264.13 90.69 241 94.83 239.3 94.83 262.54" style="fill: none;stroke: #000;stroke-width: 1.00526px"/>
  <polygon points="87.83 265.13 83.69 266.72 83.69 244.11 87.83 242.41 87.83 265.13" style="fill: none;stroke: #000;stroke-width: 1.00526px"/>
  <polygon points="80.79 267.84 76.64 269.43 76.65 246.82 80.79 245.12 80.79 267.84" style="fill: none;stroke: #000;stroke-width: 1.00526px"/>
  <polygon points="73.93 270.27 69.79 271.87 69.79 249.77 73.93 248.07 73.93 270.27" style="fill: none;stroke: #000;stroke-width: 1.00526px"/>
  <polygon points="67.39 272.82 63.24 274.41 63.25 252.32 67.39 250.61 67.39 272.82" style="fill: none;stroke: #000;stroke-width: 1.00526px"/>
  <polygon points="61.15 275.26 57.01 276.85 57.01 254.75 61.16 253.05 61.15 275.26" style="fill: none;stroke: #000;stroke-width: 1.00526px"/>
  <polygon points="54.68 277.47 51.5 278.8 51.5 257.13 54.69 255.92 54.68 277.47" style="fill: none;stroke: #000;stroke-width: 1.00526px"/>
  <polygon points="48.65 279.79 45.46 280.96 45.46 259.59 48.65 258.24 48.65 279.79" style="fill: none;stroke: #000;stroke-width: 1.00526px"/>
  <polygon points="42.51 282.15 39.33 283.32 39.33 261.94 42.52 260.6 42.51 282.15" style="fill: none;stroke: #000;stroke-width: 1.00526px"/>
  <polygon points="36.72 284.16 33.54 285.32 33.54 264.31 36.73 262.97 36.72 284.16" style="fill: none;stroke: #000;stroke-width: 1.00526px"/>
  <polygon points="243.75 261.28 237 263.45 236.91 235.39 243.66 232.98 243.75 261.28" style="fill: none;stroke: #000;stroke-width: 1.00526px"/>
  <polygon points="232.33 264.97 225.58 266.84 225.49 239.1 232.24 236.78 232.33 264.97" style="fill: none;stroke: #000;stroke-width: 1.00526px"/>
  <polygon points="220.87 268.11 214.11 270.12 214.03 242.89 220.78 240.66 220.87 268.11" style="fill: none;stroke: #000;stroke-width: 1.00526px"/>
  <polygon points="209.8 271.56 203.52 273.52 203.44 246.56 209.71 244.39 209.8 271.56" style="fill: none;stroke: #000;stroke-width: 1.00526px"/>
  <polygon points="199.25 274.69 193.57 276.39 193.49 249.81 199.17 247.89 199.25 274.69" style="fill: none;stroke: #000;stroke-width: 1.00526px"/>
  <polygon points="188.97 277.68 183.28 279.42 183.19 253.3 188.89 251.35 188.97 277.68" style="fill: none;stroke: #000;stroke-width: 1.00526px"/>
  <polygon points="179.15 280.57 173.48 282.3 173.54 256.55 179.21 254.6 179.15 280.57" style="fill: none;stroke: #000;stroke-width: 1.00526px"/>
  <polygon points="169.36 283.58 164.26 285.1 164.33 259.67 169.43 257.94 169.36 283.58" style="fill: none;stroke: #000;stroke-width: 1.00526px"/>
  <polygon points="159.84 286.24 155.15 287.67 155.22 262.7 159.91 261.06 159.84 286.24" style="fill: none;stroke: #000;stroke-width: 1.00526px"/>
  <polygon points="150.94 288.99 146.53 290.33 146.6 265.67 151 264.11 150.94 288.99" style="fill: none;stroke: #000;stroke-width: 1.00526px"/>
  <polygon points="142.38 291.55 138.24 292.73 138.23 268.39 142.38 267.11 142.38 291.55" style="fill: none;stroke: #000;stroke-width: 1.00526px"/>
  <polygon points="133.97 293.93 129.83 295.26 129.82 271.24 133.97 269.79 133.97 293.93" style="fill: none;stroke: #000;stroke-width: 1.00526px"/>
  <polygon points="125.36 296.33 121.21 297.63 121.21 274.02 125.35 272.61 125.36 296.33" style="fill: none;stroke: #000;stroke-width: 1.00526px"/>
  <polygon points="117.46 298.94 113.32 300.24 113.32 276.66 117.46 275.25 117.46 298.94" style="fill: none;stroke: #000;stroke-width: 1.00526px"/>
  <polygon points="109.73 301.25 105.59 302.58 105.59 279.42 109.73 277.97 109.73 301.25" style="fill: none;stroke: #000;stroke-width: 1.00526px"/>
  <polygon points="102.22 303.33 98.08 304.52 98.08 281.67 102.23 280.36 102.22 303.33" style="fill: none;stroke: #000;stroke-width: 1.00526px"/>
  <polygon points="94.97 305.6 90.83 306.92 90.83 284.3 94.97 282.86 94.97 305.6" style="fill: none;stroke: #000;stroke-width: 1.00526px"/>
  <polygon points="87.97 307.8 83.83 309.05 83.83 286.44 87.97 285.07 87.97 307.8" style="fill: none;stroke: #000;stroke-width: 1.00526px"/>
  <polygon points="80.92 309.83 76.78 311.2 76.78 289.05 80.93 287.57 80.92 309.83" style="fill: none;stroke: #000;stroke-width: 1.00526px"/>
  <polygon points="74.06 311.71 69.92 312.93 69.92 291.27 74.06 289.93 74.06 311.71" style="fill: none;stroke: #000;stroke-width: 1.00526px"/>
  <polygon points="67.52 313.64 63.37 314.86 63.38 293.39 67.52 292.05 67.52 313.64" style="fill: none;stroke: #000;stroke-width: 1.00526px"/>
  <polygon points="61.28 315.73 57.14 317.06 57.14 295.54 61.29 294.09 61.28 315.73" style="fill: none;stroke: #000;stroke-width: 1.00526px"/>
  <polygon points="54.81 317.56 51.63 318.55 51.63 297.49 54.82 296.28 54.81 317.56" style="fill: none;stroke: #000;stroke-width: 1.00526px"/>
  <polygon points="48.77 319.34 45.59 320.26 45.59 299.49 48.78 298.39 48.77 319.34" style="fill: none;stroke: #000;stroke-width: 1.00526px"/>
  <polygon points="42.64 321.09 39.45 322.08 39.46 301.54 42.64 300.36 42.64 321.09" style="fill: none;stroke: #000;stroke-width: 1.00526px"/>
  <polygon points="36.84 322.9 33.66 323.74 33.67 303.4 36.85 302.39 36.84 322.9" style="fill: none;stroke: #000;stroke-width: 1.00526px"/>
  <polygon points="243.93 317.63 237.18 319.25 237.08 290.13 243.84 288.25 243.93 317.63" style="fill: none;stroke: #000;stroke-width: 1.00526px"/>
  <polygon points="232.51 319.7 225.75 321.16 225.66 293.42 232.42 291.51 232.51 319.7" style="fill: none;stroke: #000;stroke-width: 1.00526px"/>
  <polygon points="221.04 321.93 214.28 323.49 214.2 296.25 220.95 294.48 221.04 321.93" style="fill: none;stroke: #000;stroke-width: 1.00526px"/>
  <polygon points="209.97 324.6 203.69 326.13 203.61 298.8 209.88 297.05 209.97 324.6" style="fill: none;stroke: #000;stroke-width: 1.00526px"/>
  <polygon points="199.42 326.88 193.74 328.08 193.65 301.5 199.34 300.08 199.42 326.88" style="fill: none;stroke: #000;stroke-width: 1.00526px"/>
  <polygon points="189.14 328.86 183.44 330.08 183.36 303.96 189.05 302.53 189.14 328.86" style="fill: none;stroke: #000;stroke-width: 1.00526px"/>
  <polygon points="179.31 331.25 173.64 332.62 173.7 306.87 179.37 305.28 179.31 331.25" style="fill: none;stroke: #000;stroke-width: 1.00526px"/>
  <polygon points="169.52 333.54 164.42 334.57 164.49 309.15 169.58 307.89 169.52 333.54" style="fill: none;stroke: #000;stroke-width: 1.00526px"/>
  <polygon points="160 335.27 155.31 336.23 155.37 311.26 160.07 310.08 160 335.27" style="fill: none;stroke: #000;stroke-width: 1.00526px"/>
  <polygon points="151.09 337.27 146.68 338.25 146.75 313.6 151.16 312.4 151.09 337.27" style="fill: none;stroke: #000;stroke-width: 1.00526px"/>
  <polygon points="142.53 338.95 138.39 340.12 138.38 315.79 142.53 314.5 142.53 338.95" style="fill: none;stroke: #000;stroke-width: 1.00526px"/>
  <polygon points="134.12 341.01 129.98 341.91 129.97 317.89 134.12 316.87 134.12 341.01" style="fill: none;stroke: #000;stroke-width: 1.00526px"/>
  <polygon points="125.5 342.75 121.36 343.52 121.36 319.91 125.5 319.03 125.5 342.75" style="fill: none;stroke: #000;stroke-width: 1.00526px"/>
  <polygon points="117.61 344.48 113.47 345.42 113.47 321.84 117.61 320.78 117.61 344.48" style="fill: none;stroke: #000;stroke-width: 1.00526px"/>
  <polygon points="109.87 346.32 105.73 347.05 105.73 323.89 109.87 323.04 109.87 346.32" style="fill: none;stroke: #000;stroke-width: 1.00526px"/>
  <polygon points="102.37 347.84 98.22 348.71 98.22 325.86 102.37 324.88 102.37 347.84" style="fill: none;stroke: #000;stroke-width: 1.00526px"/>
  <polygon points="95.11 349.37 90.96 350.29 90.97 327.67 95.11 326.63 95.11 349.37" style="fill: none;stroke: #000;stroke-width: 1.00526px"/>
  <polygon points="88.11 350.77 83.97 352.02 83.97 329.42 88.11 328.05 88.11 350.77" style="fill: none;stroke: #000;stroke-width: 1.00526px"/>
  <polygon points="81.06 352.49 76.91 353.38 76.92 331.24 81.06 330.24 81.06 352.49" style="fill: none;stroke: #000;stroke-width: 1.00526px"/>
  <polygon points="74.35 353.82 70.05 354.88 70.06 333.21 74.36 332.04 74.35 353.82" style="fill: none;stroke: #000;stroke-width: 1.00526px"/>
  <polygon points="67.7 355.3 63.78 356.06 63.79 334.58 67.7 333.71 67.7 355.3" style="fill: none;stroke: #000;stroke-width: 1.00526px"/>
  <polygon points="61.18 356.88 57.98 357.7 57.99 336.18 61.18 335.25 61.18 356.88" style="fill: none;stroke: #000;stroke-width: 1.00526px"/>
  <polygon points="54.94 358.18 51.76 358.74 51.76 337.67 54.95 336.9 54.94 358.18" style="fill: none;stroke: #000;stroke-width: 1.00526px"/>
  <polygon points="48.9 359.46 45.72 359.99 45.72 339.22 48.91 338.52 48.9 359.46" style="fill: none;stroke: #000;stroke-width: 1.00526px"/>
  <polygon points="42.76 360.59 39.58 361.19 39.59 340.64 42.77 339.86 42.76 360.59" style="fill: none;stroke: #000;stroke-width: 1.00526px"/>
  <polygon points="36.97 361.77 33.78 362.61 33.79 342.27 36.98 341.25 36.97 361.77" style="fill: none;stroke: #000;stroke-width: 1.00526px"/>
  <polygon points="244.11 373.3 237.35 374.15 237.26 345.02 244.01 343.92 244.11 373.3" style="fill: none;stroke: #000;stroke-width: 1.00526px"/>
  <polygon points="232.68 374.47 225.93 375.34 225.84 347.25 232.59 346.04 232.68 374.47" style="fill: none;stroke: #000;stroke-width: 1.00526px"/>
  <polygon points="221.21 375.57 214.46 376.68 214.37 349 221.12 347.68 221.21 375.57" style="fill: none;stroke: #000;stroke-width: 1.00526px"/>
  <polygon points="210.13 377.58 203.86 378.48 203.77 350.59 210.05 349.4 210.13 377.58" style="fill: none;stroke: #000;stroke-width: 1.00526px"/>
  <polygon points="199.59 378.54 193.9 379.37 193.82 352.79 199.5 351.52 199.59 378.54" style="fill: none;stroke: #000;stroke-width: 1.00526px"/>
  <polygon points="189.3 379.75 183.6 380.66 183.52 354.55 189.22 353.43 189.3 379.75" style="fill: none;stroke: #000;stroke-width: 1.00526px"/>
  <polygon points="179.47 381.29 173.79 382.07 173.86 356.31 179.53 355.32 179.47 381.29" style="fill: none;stroke: #000;stroke-width: 1.00526px"/>
  <polygon points="169.68 382.52 164.58 383.25 164.64 357.82 169.74 356.88 169.68 382.52" style="fill: none;stroke: #000;stroke-width: 1.00526px"/>
  <polygon points="160.15 383.82 155.46 384.47 155.53 359.5 160.22 358.64 160.15 383.82" style="fill: none;stroke: #000;stroke-width: 1.00526px"/>
  <polygon points="151.24 384.84 146.84 385.51 146.9 360.85 151.31 359.96 151.24 384.84" style="fill: none;stroke: #000;stroke-width: 1.00526px"/>
  <polygon points="142.68 386.07 138.54 386.6 138.53 362.26 142.68 361.63 142.68 386.07" style="fill: none;stroke: #000;stroke-width: 1.00526px"/>
  <polygon points="134.27 387.23 130.12 387.83 130.12 363.8 134.26 363.09 134.27 387.23" style="fill: none;stroke: #000;stroke-width: 1.00526px"/>
  <polygon points="125.65 388.53 121.5 389.08 121.5 365.47 125.65 364.81 125.65 388.53" style="fill: none;stroke: #000;stroke-width: 1.00526px"/>
  <polygon points="117.75 389.51 113.61 389.99 113.61 366.41 117.75 365.81 117.75 389.51" style="fill: none;stroke: #000;stroke-width: 1.00526px"/>
  <polygon points="110.02 390.71 105.87 391.21 105.87 368.05 110.01 367.44 110.02 390.71" style="fill: none;stroke: #000;stroke-width: 1.00526px"/>
  <polygon points="102.51 391.53 98.36 391.94 98.36 369.08 102.51 368.56 102.51 391.53" style="fill: none;stroke: #000;stroke-width: 1.00526px"/>
  <polygon points="95.25 392.56 91.1 393.02 91.1 370.4 95.25 369.82 95.25 392.56" style="fill: none;stroke: #000;stroke-width: 1.00526px"/>
  <polygon points="88.24 393.39 84.23 394.06 84.23 371.45 88.25 370.67 88.24 393.39" style="fill: none;stroke: #000;stroke-width: 1.00526px"/>
  <polygon points="81.19 394.12 77.05 394.76 77.05 372.62 81.19 371.87 81.19 394.12" style="fill: none;stroke: #000;stroke-width: 1.00526px"/>
  <polygon points="74.49 394.98 70.18 395.63 70.19 373.96 74.49 373.21 74.49 394.98" style="fill: none;stroke: #000;stroke-width: 1.00526px"/>
  <polygon points="67.83 395.93 63.91 396.45 63.91 374.98 67.83 374.35 67.83 395.93" style="fill: none;stroke: #000;stroke-width: 1.00526px"/>
  <polygon points="61.31 397.23 58.11 397.67 58.11 376.15 61.31 375.59 61.31 397.23" style="fill: none;stroke: #000;stroke-width: 1.00526px"/>
  <polygon points="55.07 397.59 51.88 398.14 51.89 377.08 55.07 376.31 55.07 397.59" style="fill: none;stroke: #000;stroke-width: 1.00526px"/>
  <polygon points="49.02 398.37 45.84 398.9 45.84 378.14 49.03 377.43 49.02 398.37" style="fill: none;stroke: #000;stroke-width: 1.00526px"/>
  <polygon points="42.89 399.34 39.7 399.68 39.71 379.13 42.9 378.61 42.89 399.34" style="fill: none;stroke: #000;stroke-width: 1.00526px"/>
  <polygon points="37.09 400.26 33.91 400.64 33.91 380.3 37.1 379.74 37.09 400.26" style="fill: none;stroke: #000;stroke-width: 1.00526px"/>
  <polygon points="244.28 427.79 237.53 428.12 237.43 398.88 244.19 398.27 244.28 427.79" style="fill: none;stroke: #000;stroke-width: 1.00526px"/>
  <polygon points="232.86 428.07 226.1 428.43 226.01 400.22 232.76 399.5 232.86 428.07" style="fill: none;stroke: #000;stroke-width: 1.00526px"/>
  <polygon points="221.38 428.5 214.62 429.11 214.53 401.43 221.29 400.62 221.38 428.5" style="fill: none;stroke: #000;stroke-width: 1.00526px"/>
  <polygon points="210.3 429.19 204.02 429.59 203.94 402.35 210.21 401.67 210.3 429.19" style="fill: none;stroke: #000;stroke-width: 1.00526px"/>
  <polygon points="199.75 429.84 194.06 429.96 193.98 403.38 199.66 402.82 199.75 429.84" style="fill: none;stroke: #000;stroke-width: 1.00526px"/>
  <polygon points="189.46 430.32 183.76 430.51 183.68 404.4 189.38 404 189.46 430.32" style="fill: none;stroke: #000;stroke-width: 1.00526px"/>
  <polygon points="179.63 430.68 173.95 430.98 174.01 405.26 179.69 404.71 179.63 430.68" style="fill: none;stroke: #000;stroke-width: 1.00526px"/>
  <polygon points="169.83 431.36 164.73 431.77 164.8 406.35 169.9 405.71 169.83 431.36" style="fill: none;stroke: #000;stroke-width: 1.00526px"/>
  <polygon points="160.31 431.61 155.61 431.98 155.68 407.01 160.37 406.42 160.31 431.61" style="fill: none;stroke: #000;stroke-width: 1.00526px"/>
  <polygon points="151.39 432.23 146.99 432.57 147.05 407.91 151.46 407.35 151.39 432.23" style="fill: none;stroke: #000;stroke-width: 1.00526px"/>
  <polygon points="142.83 432.52 138.69 432.77 138.68 408.44 142.83 408.08 142.83 432.52" style="fill: none;stroke: #000;stroke-width: 1.00526px"/>
  <polygon points="134.42 433.24 130.27 433.56 130.27 409.54 134.41 409.1 134.42 433.24" style="fill: none;stroke: #000;stroke-width: 1.00526px"/>
  <polygon points="126.23 433.7 122.09 433.93 122.09 410.32 126.23 409.98 126.23 433.7" style="fill: none;stroke: #000;stroke-width: 1.00526px"/>
  <polygon points="118.44 434.32 114.29 434.4 114.29 410.82 118.43 410.62 118.44 434.32" style="fill: none;stroke: #000;stroke-width: 1.00526px"/>
  <polygon points="110.6 434.56 106.45 434.89 106.45 411.73 110.6 411.29 110.6 434.56" style="fill: none;stroke: #000;stroke-width: 1.00526px"/>
  <polygon points="103.18 434.9 99.04 435.31 99.04 412.45 103.19 411.94 103.18 434.9" style="fill: none;stroke: #000;stroke-width: 1.00526px"/>
  <polygon points="96.17 435.44 92.02 435.66 92.02 413.04 96.17 412.71 96.17 435.44" style="fill: none;stroke: #000;stroke-width: 1.00526px"/>
  <polygon points="88.67 435.84 84.66 436.04 84.66 413.65 88.68 413.12 88.67 435.84" style="fill: none;stroke: #000;stroke-width: 1.00526px"/>
  <polygon points="82.06 435.98 77.91 436.37 77.92 414.23 82.06 413.72 82.06 435.98" style="fill: none;stroke: #000;stroke-width: 1.00526px"/>
  <polygon points="75.41 436.4 71.29 436.65 71.3 414.99 75.42 414.62 75.41 436.4" style="fill: none;stroke: #000;stroke-width: 1.00526px"/>
  <polygon points="68.7 436.81 64.87 437.03 64.88 415.56 68.71 415.22 68.7 436.81" style="fill: none;stroke: #000;stroke-width: 1.00526px"/>
  <polygon points="61.83 437.46 58.63 437.51 58.63 415.99 61.83 415.83 61.83 437.46" style="fill: none;stroke: #000;stroke-width: 1.00526px"/>
  <polygon points="55.73 437.6 52.55 437.7 52.55 416.63 55.74 416.33 55.73 437.6" style="fill: none;stroke: #000;stroke-width: 1.00526px"/>
  <polygon points="49.64 437.87 46.45 438.01 46.46 417.25 49.65 416.93 49.64 437.87" style="fill: none;stroke: #000;stroke-width: 1.00526px"/>
  <polygon points="43.75 438.14 40.56 438.34 40.57 417.8 43.75 417.41 43.75 438.14" style="fill: none;stroke: #000;stroke-width: 1.00526px"/>
  <polygon points="37.76 438.55 34.57 438.57 34.58 418.23 37.76 418.03 37.76 438.55" style="fill: none;stroke: #000;stroke-width: 1.00526px"/>
  <polygon points="244.46 482.52 237.7 482.11 237.61 455.05 244.37 455.01 244.46 482.52" style="fill: none;stroke: #000;stroke-width: 1.00526px"/>
  <polygon points="233.03 482.06 226.92 481.93 226.83 455.31 232.94 455.31 233.03 482.06" style="fill: none;stroke: #000;stroke-width: 1.00526px"/>
  <polygon points="221.55 481.66 215.47 481.48 215.38 455.44 221.47 455.43 221.55 481.66" style="fill: none;stroke: #000;stroke-width: 1.00526px"/>
  <polygon points="210.47 481.4 204.19 481.14 204.11 455.63 210.38 455.61 210.47 481.4" style="fill: none;stroke: #000;stroke-width: 1.00526px"/>
  <polygon points="199.91 481.22 194.23 480.85 194.15 455.74 199.83 455.68 199.91 481.22" style="fill: none;stroke: #000;stroke-width: 1.00526px"/>
  <polygon points="189.63 480.9 184.28 480.72 184.2 455.82 189.54 455.77 189.63 480.9" style="fill: none;stroke: #000;stroke-width: 1.00526px"/>
  <polygon points="179.79 480.93 174.11 480.73 174.18 455.73 179.85 455.68 179.79 480.93" style="fill: none;stroke: #000;stroke-width: 1.00526px"/>
  <polygon points="169.92 480.31 164.82 480.15 164.88 455.68 169.98 455.62 169.92 480.31" style="fill: none;stroke: #000;stroke-width: 1.00526px"/>
  <polygon points="161.18 480.19 156.49 480.12 156.56 456.03 161.25 455.9 161.18 480.19" style="fill: none;stroke: #000;stroke-width: 1.00526px"/>
  <polygon points="151.55 479.87 147.14 479.63 147.21 456.16 151.62 456.18 151.55 479.87" style="fill: none;stroke: #000;stroke-width: 1.00526px"/>
  <polygon points="142.98 479.39 138.84 479.39 138.84 456.37 142.98 456.25 142.98 479.39" style="fill: none;stroke: #000;stroke-width: 1.00526px"/>
  <polygon points="134.56 479.27 130.42 479.17 130.41 456.35 134.56 456.34 134.56 479.27" style="fill: none;stroke: #000;stroke-width: 1.00526px"/>
  <polygon points="126.38 479.08 122.23 478.97 122.23 456.5 126.38 456.5 126.38 479.08" style="fill: none;stroke: #000;stroke-width: 1.00526px"/>
  <polygon points="118.58 478.89 114.43 478.69 114.43 456.33 118.58 456.42 118.58 478.89" style="fill: none;stroke: #000;stroke-width: 1.00526px"/>
  <polygon points="110.74 478.63 106.59 478.54 106.59 456.61 110.74 456.58 110.74 478.63" style="fill: none;stroke: #000;stroke-width: 1.00526px"/>
  <polygon points="103.32 478.37 99.18 478.24 99.18 456.7 103.33 456.73 103.32 478.37" style="fill: none;stroke: #000;stroke-width: 1.00526px"/>
  <polygon points="96.31 478.17 92.16 478.05 92.16 456.59 96.31 456.56 96.31 478.17" style="fill: none;stroke: #000;stroke-width: 1.00526px"/>
  <polygon points="88.81 477.84 84.79 477.85 84.8 456.9 88.81 456.76 88.81 477.84" style="fill: none;stroke: #000;stroke-width: 1.00526px"/>
  <polygon points="82.19 477.79 78.05 477.86 78.05 456.65 82.2 456.83 82.19 477.79" style="fill: none;stroke: #000;stroke-width: 1.00526px"/>
  <polygon points="75.54 477.67 71.42 477.68 71.43 456.76 75.55 456.64 75.54 477.67" style="fill: none;stroke: #000;stroke-width: 1.00526px"/>
  <polygon points="68.83 477.54 65 477.36 65.01 456.89 68.84 456.88 68.83 477.54" style="fill: none;stroke: #000;stroke-width: 1.00526px"/>
  <polygon points="61.95 477.35 58.76 477.4 58.76 456.84 61.96 456.9 61.95 477.35" style="fill: none;stroke: #000;stroke-width: 1.00526px"/>
  <polygon points="55.86 477.08 52.67 477.13 52.68 456.96 55.87 456.99 55.86 477.08" style="fill: none;stroke: #000;stroke-width: 1.00526px"/>
  <polygon points="49.77 477.17 46.58 477.02 46.59 456.86 49.78 456.87 49.77 477.17" style="fill: none;stroke: #000;stroke-width: 1.00526px"/>
  <polygon points="43.87 477.01 40.68 476.91 40.69 456.97 43.88 457.03 43.87 477.01" style="fill: none;stroke: #000;stroke-width: 1.00526px"/>
  <polygon points="37.88 476.85 34.69 476.78 34.7 457.05 37.89 457.12 37.88 476.85" style="fill: none;stroke: #000;stroke-width: 1.00526px"/>
  <polygon points="245.41 543.79 238.65 542.99 238.56 515.42 245.32 516.02 245.41 543.79" style="fill: none;stroke: #000;stroke-width: 1.00526px"/>
  <polygon points="233.98 542.41 227.87 541.84 227.78 514.71 233.89 515.16 233.98 542.41" style="fill: none;stroke: #000;stroke-width: 1.00526px"/>
  <polygon points="222.5 541.08 216.42 540.46 216.33 513.68 222.41 514.1 222.5 541.08" style="fill: none;stroke: #000;stroke-width: 1.00526px"/>
  <polygon points="211.41 539.83 205.13 538.94 205.05 512.58 211.33 513.19 211.41 539.83" style="fill: none;stroke: #000;stroke-width: 1.00526px"/>
  <polygon points="200.86 538.56 195.17 537.7 195.09 511.99 200.77 512.41 200.86 538.56" style="fill: none;stroke: #000;stroke-width: 1.00526px"/>
  <polygon points="190.56 537.24 185.22 536.6 185.14 511.12 190.48 511.54 190.56 537.24" style="fill: none;stroke: #000;stroke-width: 1.00526px"/>
  <polygon points="180.72 536.11 175.04 535.44 175.11 510.44 180.79 510.86 180.72 536.11" style="fill: none;stroke: #000;stroke-width: 1.00526px"/>
  <polygon points="170.85 535.1 165.75 534.49 165.81 509.63 170.92 510.03 170.85 535.1" style="fill: none;stroke: #000;stroke-width: 1.00526px"/>
  <polygon points="162.11 533.83 157.41 533.16 157.48 508.82 162.18 509.27 162.11 533.83" style="fill: none;stroke: #000;stroke-width: 1.00526px"/>
  <polygon points="152.47 532.71 147.75 532.16 147.82 508.25 152.54 508.57 152.47 532.71" style="fill: none;stroke: #000;stroke-width: 1.00526px"/>
  <polygon points="143.91 531.56 139.76 531.08 139.76 507.58 143.91 507.96 143.91 531.56" style="fill: none;stroke: #000;stroke-width: 1.00526px"/>
  <polygon points="135.49 530.56 131.34 530.17 131.34 506.85 135.49 507.13 135.49 530.56" style="fill: none;stroke: #000;stroke-width: 1.00526px"/>
  <polygon points="127.3 529.55 123.15 529.12 123.15 506.19 127.3 506.51 127.3 529.55" style="fill: none;stroke: #000;stroke-width: 1.00526px"/>
  <polygon points="119.5 528.51 115.07 528.04 115.08 505.68 119.5 506.05 119.5 528.51" style="fill: none;stroke: #000;stroke-width: 1.00526px"/>
  <polygon points="111.07 527.28 107.75 526.97 107.75 505.03 111.07 505.24 111.07 527.28" style="fill: none;stroke: #000;stroke-width: 1.00526px"/>
  <polygon points="103.8 526.82 100.09 526.3 100.09 504.32 103.81 504.72 103.8 526.82" style="fill: none;stroke: #000;stroke-width: 1.00526px"/>
  <polygon points="96.63 525.83 93.07 525.47 93.07 504.01 96.64 503.99 96.63 525.83" style="fill: none;stroke: #000;stroke-width: 1.00526px"/>
  <polygon points="89.72 524.88 85.7 524.5 85.71 503.54 89.72 503.81 89.72 524.88" style="fill: none;stroke: #000;stroke-width: 1.00526px"/>
  <polygon points="82.59 524.07 78.95 523.92 78.96 502.71 82.6 503.11 82.59 524.07" style="fill: none;stroke: #000;stroke-width: 1.00526px"/>
  <polygon points="75.87 523.29 72.55 522.89 72.56 501.98 75.87 502.25 75.87 523.29" style="fill: none;stroke: #000;stroke-width: 1.00526px"/>
  <polygon points="69.54 522.7 65.82 522.08 65.83 501.61 69.55 502.04 69.54 522.7" style="fill: none;stroke: #000;stroke-width: 1.00526px"/>
  <polygon points="62.92 521.92 59.8 521.61 59.81 501.05 62.93 501.48 62.92 521.92" style="fill: none;stroke: #000;stroke-width: 1.00526px"/>
  <polygon points="56.76 521.07 53.59 520.78 53.6 500.61 56.77 500.99 56.76 521.07" style="fill: none;stroke: #000;stroke-width: 1.00526px"/>
  <polygon points="50.23 520.41 47.54 520.1 47.55 499.94 50.24 500.11 50.23 520.41" style="fill: none;stroke: #000;stroke-width: 1.00526px"/>
  <polygon points="44.6 519.79 41.58 519.42 41.59 499.48 44.62 499.81 44.6 519.79" style="fill: none;stroke: #000;stroke-width: 1.00526px"/>
  <polygon points="38.72 519.1 35.52 518.77 35.53 499.04 38.73 499.37 38.72 519.1" style="fill: none;stroke: #000;stroke-width: 1.00526px"/>
  <polygon points="245.82 672.22 239.06 670.18 238.97 643.53 245.74 645.38 245.82 672.22" style="fill: none;stroke: #000;stroke-width: 1.00526px"/>
  <polygon points="234.38 668.35 229.13 666.63 229.05 641.02 234.3 642.34 234.38 668.35" style="fill: none;stroke: #000;stroke-width: 1.00526px"/>
  <polygon points="222.9 664.87 216.81 662.83 216.73 637.65 222.81 639.47 222.9 664.87" style="fill: none;stroke: #000;stroke-width: 1.00526px"/>
  <polygon points="212.75 662.05 206.46 659.93 206.38 634.34 212.66 636.17 212.75 662.05" style="fill: none;stroke: #000;stroke-width: 1.00526px"/>
  <polygon points="201.61 659.04 196.51 657.47 196.43 631.76 201.52 633.08 201.61 659.04" style="fill: none;stroke: #000;stroke-width: 1.00526px"/>
  <polygon points="192.03 656.16 186.87 654.6 186.79 629.12 191.95 630.47 192.03 656.16" style="fill: none;stroke: #000;stroke-width: 1.00526px"/>
  <polygon points="180.52 652.59 176.66 651.23 176.72 626.23 180.58 627.33 180.52 652.59" style="fill: none;stroke: #000;stroke-width: 1.00526px"/>
  <polygon points="171.22 649.59 167.49 648.32 167.34 623.71 171.07 624.76 171.22 649.59" style="fill: none;stroke: #000;stroke-width: 1.00526px"/>
  <polygon points="162.38 646.93 158.14 645.58 158.2 621.23 162.45 622.38 162.38 646.93" style="fill: none;stroke: #000;stroke-width: 1.00526px"/>
  <polygon points="153.18 644.14 148.97 642.84 149.05 618.93 153.25 620.02 153.18 644.14" style="fill: none;stroke: #000;stroke-width: 1.00526px"/>
  <polygon points="144.78 641.35 140.76 640.09 140.76 616.6 144.77 617.74 144.78 641.35" style="fill: none;stroke: #000;stroke-width: 1.00526px"/>
  <polygon points="136.29 638.89 132.48 637.73 132.48 614.41 136.29 615.46 136.29 638.89" style="fill: none;stroke: #000;stroke-width: 1.00526px"/>
  <polygon points="128.11 636.34 124.43 635.37 124.43 612.45 128.11 613.3 128.11 636.34" style="fill: none;stroke: #000;stroke-width: 1.00526px"/>
  <polygon points="120.28 633.82 116.28 632.71 116.28 610.35 120.29 611.36 120.28 633.82" style="fill: none;stroke: #000;stroke-width: 1.00526px"/>
  <polygon points="111.95 631.1 108.95 630.11 108.95 608.18 111.95 609.05 111.95 631.1" style="fill: none;stroke: #000;stroke-width: 1.00526px"/>
  <polygon points="104.42 628.81 100.99 627.72 101 605.73 104.42 606.71 104.42 628.81" style="fill: none;stroke: #000;stroke-width: 1.00526px"/>
  <polygon points="97.61 626.88 94.04 626.01 94.05 604.09 97.61 604.57 97.61 626.88" style="fill: none;stroke: #000;stroke-width: 1.00526px"/>
  <polygon points="90.58 624.51 86.96 623.44 86.97 602.49 90.58 603.43 90.58 624.51" style="fill: none;stroke: #000;stroke-width: 1.00526px"/>
  <polygon points="83.69 622.43 80.36 621.43 80.36 600.22 83.7 601.48 83.69 622.43" style="fill: none;stroke: #000;stroke-width: 1.00526px"/>
  <polygon points="76.88 620.5 73.58 619.53 73.59 598.61 76.89 599.46 76.88 620.5" style="fill: none;stroke: #000;stroke-width: 1.00526px"/>
  <polygon points="70.29 618.21 66.99 617.41 67 596.93 70.3 597.54 70.29 618.21" style="fill: none;stroke: #000;stroke-width: 1.00526px"/>
  <polygon points="63.62 616.35 60.61 615.41 60.62 594.85 63.63 595.89 63.62 616.35" style="fill: none;stroke: #000;stroke-width: 1.00526px"/>
  <polygon points="57.39 614.48 54.25 613.43 54.26 593.26 57.4 594.39 57.39 614.48" style="fill: none;stroke: #000;stroke-width: 1.00526px"/>
  <polygon points="50.89 612.55 48.2 611.81 48.2 591.65 50.9 592.24 50.89 612.55" style="fill: none;stroke: #000;stroke-width: 1.00526px"/>
  <polygon points="45.62 610.9 42.59 609.9 42.6 589.96 45.63 590.92 45.62 610.9" style="fill: none;stroke: #000;stroke-width: 1.00526px"/>
  <polygon points="39.8 608.89 36.6 608.09 36.61 588.36 39.81 589.16 39.8 608.89" style="fill: none;stroke: #000;stroke-width: 1.00526px"/>
  <polygon points="247.09 729.75 240.32 727.09 240.24 700.45 247 702.92 247.09 729.75" style="fill: none;stroke: #000;stroke-width: 1.00526px"/>
  <polygon points="235.06 724.96 229.19 722.4 229.1 696.8 234.97 698.94 235.06 724.96" style="fill: none;stroke: #000;stroke-width: 1.00526px"/>
  <polygon points="223.95 721.08 217.86 718.59 217.78 692.56 223.87 694.8 223.95 721.08" style="fill: none;stroke: #000;stroke-width: 1.00526px"/>
  <polygon points="213.54 716.7 207.25 714.14 207.17 688.54 213.46 690.81 213.54 716.7" style="fill: none;stroke: #000;stroke-width: 1.00526px"/>
  <polygon points="202.19 712.46 197.09 710.38 197.01 684.67 202.1 686.5 202.19 712.46" style="fill: none;stroke: #000;stroke-width: 1.00526px"/>
  <polygon points="192.09 708.38 186.94 706.43 186.85 680.95 192.01 682.68 192.09 708.38" style="fill: none;stroke: #000;stroke-width: 1.00526px"/>
  <polygon points="182.03 704.6 177.18 702.65 177.25 677.65 182.09 679.35 182.03 704.6" style="fill: none;stroke: #000;stroke-width: 1.00526px"/>
  <polygon points="172.36 700.82 168.01 698.97 167.86 673.84 172.21 675.48 172.36 700.82" style="fill: none;stroke: #000;stroke-width: 1.00526px"/>
  <polygon points="162.85 697 158.6 695.35 158.67 671 162.92 672.44 162.85 697" style="fill: none;stroke: #000;stroke-width: 1.00526px"/>
  <polygon points="153.65 693.59 149.44 691.84 149.51 667.48 153.72 669.02 153.65 693.59" style="fill: none;stroke: #000;stroke-width: 1.00526px"/>
  <polygon points="145.19 690.06 141.17 688.53 141.17 664.36 145.18 665.79 145.19 690.06" style="fill: none;stroke: #000;stroke-width: 1.00526px"/>
  <polygon points="136.81 686.65 132.99 685.08 132.99 661.77 136.81 663.21 136.81 686.65" style="fill: none;stroke: #000;stroke-width: 1.00526px"/>
  <polygon points="128.67 683.53 124.99 682.11 124.99 659.19 128.67 660.5 128.67 683.53" style="fill: none;stroke: #000;stroke-width: 1.00526px"/>
  <polygon points="121.05 680.57 117.04 678.93 117.04 656 121.05 657.54 121.05 680.57" style="fill: none;stroke: #000;stroke-width: 1.00526px"/>
  <polygon points="112.82 677.01 109.82 676.03 109.82 653.55 112.82 654.58 112.82 677.01" style="fill: none;stroke: #000;stroke-width: 1.00526px"/>
  <polygon points="105.54 674.55 102.11 673.11 102.12 651.13 105.54 652.46 105.54 674.55" style="fill: none;stroke: #000;stroke-width: 1.00526px"/>
  <polygon points="98.42 671.78 94.85 670.22 94.86 648.3 98.42 649.48 98.42 671.78" style="fill: none;stroke: #000;stroke-width: 1.00526px"/>
  <polygon points="90.72 668.43 87.1 667.05 87.1 645.89 90.72 647.19 90.72 668.43" style="fill: none;stroke: #000;stroke-width: 1.00526px"/>
  <polygon points="83.83 665.88 80.5 664.56 80.5 643.36 83.84 644.62 83.83 665.88" style="fill: none;stroke: #000;stroke-width: 1.00526px"/>
  <polygon points="77.02 663.27 73.72 661.95 73.72 641.02 77.03 642.24 77.02 663.27" style="fill: none;stroke: #000;stroke-width: 1.00526px"/>
  <polygon points="70.63 660.88 67.33 659.62 67.34 639.15 70.64 640.21 70.63 660.88" style="fill: none;stroke: #000;stroke-width: 1.00526px"/>
  <polygon points="63.76 658.39 60.74 657.12 60.75 636.55 63.77 637.59 63.76 658.39" style="fill: none;stroke: #000;stroke-width: 1.00526px"/>
  <polygon points="58.09 655.62 54.95 654.36 54.95 634.29 58.1 635.42 58.09 655.62" style="fill: none;stroke: #000;stroke-width: 1.00526px"/>
  <polygon points="52 653.42 49.3 652.33 49.31 632.17 52.01 633.12 52 653.42" style="fill: none;stroke: #000;stroke-width: 1.00526px"/>
  <polygon points="46.05 651.06 43.03 650.06 43.04 630.12 46.07 631.08 46.05 651.06" style="fill: none;stroke: #000;stroke-width: 1.00526px"/>
  <polygon points="39.93 648.89 36.73 647.53 36.74 628.21 40.03 629.48 39.93 648.89" style="fill: none;stroke: #000;stroke-width: 1.00526px"/>
  <polygon points="247.76 794.29 240.99 790.8 240.91 764.16 247.68 767.45 247.76 794.29" style="fill: none;stroke: #000;stroke-width: 1.00526px"/>
  <polygon points="235.73 788.07 229.85 785.3 229.77 759.7 235.64 762.06 235.73 788.07" style="fill: none;stroke: #000;stroke-width: 1.00526px"/>
  <polygon points="224.61 782.83 218.52 779.93 218.44 754.65 224.53 757.29 224.61 782.83" style="fill: none;stroke: #000;stroke-width: 1.00526px"/>
  <polygon points="214.1 777.63 207.81 774.53 207.73 749.64 214.02 752.45 214.1 777.63" style="fill: none;stroke: #000;stroke-width: 1.00526px"/>
  <polygon points="202.84 771.87 197.75 769.35 197.67 745.54 202.77 747.81 202.84 771.87" style="fill: none;stroke: #000;stroke-width: 1.00526px"/>
  <polygon points="192.75 766.93 187.59 764.47 187.51 740.97 192.67 743.21 192.75 766.93" style="fill: none;stroke: #000;stroke-width: 1.00526px"/>
  <polygon points="182.68 762.19 177.83 759.86 177.9 736.61 182.75 738.69 182.68 762.19" style="fill: none;stroke: #000;stroke-width: 1.00526px"/>
  <polygon points="173.01 757.55 168.66 755.42 168.51 732.39 172.87 734.29 173.01 757.55" style="fill: none;stroke: #000;stroke-width: 1.00526px"/>
  <polygon points="163.5 752.91 159.25 750.71 159.32 728.16 163.57 730.13 163.5 752.91" style="fill: none;stroke: #000;stroke-width: 1.00526px"/>
  <polygon points="154.76 748.96 150.08 746.51 150.16 724.13 154.83 726.38 154.76 748.96" style="fill: none;stroke: #000;stroke-width: 1.00526px"/>
  <polygon points="145.83 744.22 141.81 742.36 141.82 720.62 145.83 722.37 145.83 744.22" style="fill: none;stroke: #000;stroke-width: 1.00526px"/>
  <polygon points="137.76 740.36 133.63 738.49 133.63 716.73 137.76 718.49 137.76 740.36" style="fill: none;stroke: #000;stroke-width: 1.00526px"/>
  <polygon points="129.31 736.31 125.63 734.49 125.64 713.26 129.31 714.97 129.31 736.31" style="fill: none;stroke: #000;stroke-width: 1.00526px"/>
  <polygon points="121.68 732.56 117.67 730.42 117.68 709.98 121.69 711.51 121.68 732.56" style="fill: none;stroke: #000;stroke-width: 1.00526px"/>
  <polygon points="113.45 728.71 110.45 727.22 110.46 706.53 113.46 708.07 113.45 728.71" style="fill: none;stroke: #000;stroke-width: 1.00526px"/>
  <polygon points="106.07 725.06 102.74 723.52 102.75 703.21 106.08 704.64 106.07 725.06" style="fill: none;stroke: #000;stroke-width: 1.00526px"/>
  <polygon points="99.05 721.7 95.48 719.97 95.49 699.94 99.06 701.58 99.05 721.7" style="fill: none;stroke: #000;stroke-width: 1.00526px"/>
  <polygon points="91.34 717.74 87.72 716.05 87.73 696.58 91.36 698.19 91.34 717.74" style="fill: none;stroke: #000;stroke-width: 1.00526px"/>
  <polygon points="84.46 714.49 81.12 712.87 81.13 693.75 84.47 695.01 84.46 714.49" style="fill: none;stroke: #000;stroke-width: 1.00526px"/>
  <polygon points="77.64 711.23 74.34 709.56 74.35 690.72 77.66 692.28 77.64 711.23" style="fill: none;stroke: #000;stroke-width: 1.00526px"/>
  <polygon points="71.25 708.07 67.95 706.58 67.97 687.8 71.26 689.09 71.25 708.07" style="fill: none;stroke: #000;stroke-width: 1.00526px"/>
  <polygon points="64.37 704.81 61.36 703.24 61.37 684.86 64.39 686.21 64.37 704.81" style="fill: none;stroke: #000;stroke-width: 1.00526px"/>
  <polygon points="58.7 701.95 55.56 700.18 55.57 682.4 58.72 684.02 58.7 701.95" style="fill: none;stroke: #000;stroke-width: 1.00526px"/>
  <polygon points="52.61 698.98 49.91 697.59 49.93 680.08 52.63 681.03 52.61 698.98" style="fill: none;stroke: #000;stroke-width: 1.00526px"/>
  <polygon points="46.67 696.12 43.64 694.78 43.66 677.32 46.68 678.63 46.67 696.12" style="fill: none;stroke: #000;stroke-width: 1.00526px"/>
  <polygon points="40.53 693.15 37.33 691.49 37.35 674.42 40.65 675.7 40.53 693.15" style="fill: none;stroke: #000;stroke-width: 1.00526px"/>
  <line x1="70.71" y1="768.08" x2="105.68" y2="788.32" style="fill: none;stroke: #000;stroke-width: 1.00526px"/>
  <line x1="70.74" y1="777.78" x2="105.71" y2="798.02" style="fill: none;stroke: #000;stroke-width: 1.00526px"/>
  <polyline points="113.14 785.61 115.38 785.05 204.5 836.79" style="fill: none;stroke: #000;stroke-width: 1.00526px"/>
  <line x1="115.22" y1="779.12" x2="115.24" y2="785.05" style="fill: none;stroke: #000;stroke-width: 1.00526px"/>
  <polyline points="115.66 832.23 115.68 838.02 113.31 838.53" style="fill: none;stroke: #000;stroke-width: 1.00526px"/>
  <line x1="116.09" y1="838.02" x2="204.29" y2="898.52" style="fill: none;stroke: #000;stroke-width: 1.00526px"/>
  <polyline points="19.08 722.82 19.09 727.94 17.55 728.6" style="fill: none;stroke: #000;stroke-width: 1.00526px"/>
  <line x1="19.09" y1="727.94" x2="57.18" y2="750.87" style="fill: none;stroke: #000;stroke-width: 1.00526px"/>
  <polyline points="17.69 772.91 19.77 772.15 19.76 767.7" style="fill: none;stroke: #000;stroke-width: 1.00526px"/>
  <line x1="19.77" y1="772.15" x2="57.46" y2="798.18" style="fill: none;stroke: #000;stroke-width: 1.00526px"/>
  <polyline points="962.08 947.99 962.1 955.54 969.24 955.25 969.22 947.43" style="fill: none;stroke: #000;stroke-width: 1.00526px"/>
  <line x1="383.09" y1="1006.86" x2="764.97" y2="974.91" style="fill: none;stroke: #000;stroke-width: 1.00526px"/>
  <line x1="940.05" y1="763.14" x2="940.07" y2="767.72" style="fill: none;stroke: #000;stroke-width: 1.00526px"/>
  <line x1="940.07" y1="767.72" x2="451.76" y2="794.09" style="fill: none;stroke: #000;stroke-width: 1.00526px"/>
  <polygon points="538.56 182.29 538.57 185.12 549.08 185.49 549.07 182.66 538.56 182.29" style="fill: none;stroke: #000;stroke-width: 1.00526px"/>
  <polygon points="538.73 234.59 538.74 237.42 549.25 237.79 549.24 234.96 538.73 234.59" style="fill: none;stroke: #000;stroke-width: 1.00526px"/>
  <polygon points="538.61 282.84 538.62 285.67 549.14 286.04 549.13 283.21 538.61 282.84" style="fill: none;stroke: #000;stroke-width: 1.00526px"/>
  <polygon points="538.5 330.55 538.5 333.38 549.02 333.75 549.01 330.92 538.5 330.55" style="fill: none;stroke: #000;stroke-width: 1.00526px"/>
  <polygon points="538.79 378.94 538.79 381.77 549.31 382.14 549.3 379.31 538.79 378.94" style="fill: none;stroke: #000;stroke-width: 1.00526px"/>
  <polygon points="539.07 426.79 539.08 429.62 549.6 429.99 549.59 427.16 539.07 426.79" style="fill: none;stroke: #000;stroke-width: 1.00526px"/>
  <polygon points="275.11 949.33 265.68 942.34 265.57 909.73 275 915.79 275.11 949.33" style="fill: none;stroke: #000;stroke-width: 1.00526px"/>
  <line x1="265.68" y1="942.34" x2="275.09" y2="942.04" style="fill: none;stroke: #000;stroke-width: 1.00526px"/>
  <polyline points="969.27 950.12 983.13 948.95 983.24 984.18" style="fill: none;stroke: #000;stroke-width: 1.00526px"/>
  <line x1="764.88" y1="967.38" x2="962.03" y2="950.73" style="fill: none;stroke: #000;stroke-width: 1.00526px"/>
  <line x1="943.85" y1="969.57" x2="765.17" y2="985.8" style="fill: none;stroke: #000;stroke-width: 1.00526px"/>
  <line x1="982.95" y1="965.98" x2="944.25" y2="969.49" style="fill: none;stroke: #000;stroke-width: 1.00526px"/>
  <line x1="943.5" y1="970.5" x2="765.17" y2="986.72" style="fill: none;stroke: #000;stroke-width: 1.00526px"/>
  <line x1="982.95" y1="966.91" x2="944.35" y2="970.42" style="fill: none;stroke: #000;stroke-width: 1.00526px"/>
  <line x1="944.51" y1="970.47" x2="944.56" y2="988.16" style="fill: none;stroke: #000;stroke-width: 1.00526px"/>
  <line x1="944.45" y1="952.28" x2="944.51" y2="969.52" style="fill: none;stroke: #000;stroke-width: 1.00526px"/>
  <line x1="943.59" y1="970.27" x2="943.65" y2="988.16" style="fill: none;stroke: #000;stroke-width: 1.00526px"/>
  <line x1="943.53" y1="952.28" x2="943.59" y2="969.62" style="fill: none;stroke: #000;stroke-width: 1.00526px"/>
  <line x1="903.47" y1="955.82" x2="903.59" y2="992.19" style="fill: none;stroke: #000;stroke-width: 1.00526px"/>
  <line x1="902.55" y1="955.83" x2="902.67" y2="992.19" style="fill: none;stroke: #000;stroke-width: 1.00526px"/>
  <line x1="858.81" y1="959.56" x2="858.93" y2="996.78" style="fill: none;stroke: #000;stroke-width: 1.00526px"/>
  <line x1="857.89" y1="959.56" x2="858.01" y2="996.78" style="fill: none;stroke: #000;stroke-width: 1.00526px"/>
  <line x1="809.54" y1="963.67" x2="809.67" y2="1001.9" style="fill: none;stroke: #000;stroke-width: 1.00526px"/>
  <line x1="808.63" y1="963.68" x2="808.75" y2="1001.91" style="fill: none;stroke: #000;stroke-width: 1.00526px"/>
  <line x1="816.48" y1="104.19" x2="842.86" y2="105.96" style="fill: none;stroke: #000;stroke-width: 1.00526px"/>
  <line x1="816.49" y1="108.32" x2="842.87" y2="110.09" style="fill: none;stroke: #000;stroke-width: 1.00526px"/>
  <polyline points="843.11 96.12 843.31 158.13 830.48 157.17 816.95 161.63" style="fill: none;stroke: #000;stroke-width: 1.00526px"/>
  <line x1="830.48" y1="157.17" x2="830.5" y2="162.73" style="fill: none;stroke: #000;stroke-width: 1.00526px"/>
  <polyline points="816.5 110.17 827.2 110.71 831.75 109.56" style="fill: none;stroke: #000;stroke-width: 1.00526px"/>
  <line x1="832.14" y1="145.19" x2="832.19" y2="157.31" style="fill: none;stroke: #000;stroke-width: 1.00526px"/>
  <line x1="832.13" y1="137.64" x2="832.13" y2="140.49" style="fill: none;stroke: #000;stroke-width: 1.00526px"/>
  <line x1="832.05" y1="115.26" x2="832.12" y2="136.07" style="fill: none;stroke: #000;stroke-width: 1.00526px"/>
  <line x1="816.45" y1="139.54" x2="842.97" y2="141.16" style="fill: none;stroke: #000;stroke-width: 1.00526px"/>
  <line x1="816.47" y1="144.53" x2="842.98" y2="146.16" style="fill: none;stroke: #000;stroke-width: 1.00526px"/>
  <line x1="832.17" y1="152.32" x2="838.56" y2="145.89" style="fill: none;stroke: #000;stroke-width: 1.00526px"/>
  <polyline points="841.85 146.16 834.88 153.31 840.45 155.86" style="fill: none;stroke: #000;stroke-width: 1.00526px"/>
  <line x1="832.32" y1="154.31" x2="838.75" y2="157.86" style="fill: none;stroke: #000;stroke-width: 1.00526px"/>
  <line x1="840.71" y1="145.74" x2="840.75" y2="158.28" style="fill: none;stroke: #000;stroke-width: 1.00526px"/>
  <line x1="840.68" y1="138.04" x2="840.69" y2="141.03" style="fill: none;stroke: #000;stroke-width: 1.00526px"/>
  <line x1="840.61" y1="115.52" x2="840.67" y2="136.61" style="fill: none;stroke: #000;stroke-width: 1.00526px"/>
  <line x1="831.93" y1="121.25" x2="838.33" y2="115.24" style="fill: none;stroke: #000;stroke-width: 1.00526px"/>
  <line x1="831.8" y1="124.1" x2="843.2" y2="124.92" style="fill: none;stroke: #000;stroke-width: 1.00526px"/>
  <line x1="832.11" y1="131.22" x2="842.93" y2="127.91" style="fill: none;stroke: #000;stroke-width: 1.00526px"/>
  <line x1="835.05" y1="115.39" x2="835.08" y2="124.09" style="fill: none;stroke: #000;stroke-width: 1.00526px"/>
  <polyline points="344.95 95.35 358.04 96.8 370.65 89.75" style="fill: none;stroke: #000;stroke-width: 1.00526px"/>
  <line x1="345.12" y1="76.63" x2="377.96" y2="78.59" style="fill: none;stroke: #000;stroke-width: 1.00526px"/>
  <polyline points="345.14 82.6 369.59 82.87 370.98 84.82 377.96 78.82" style="fill: none;stroke: #000;stroke-width: 1.00526px"/>
  <line x1="373.05" y1="86.88" x2="378.09" y2="82.84" style="fill: none;stroke: #000;stroke-width: 1.00526px"/>
  <polyline points="373.6 114.2 373.6 115.58 377.16 115.91 378.03 114.26 344.98 113.61" style="fill: none;stroke: #000;stroke-width: 1.00526px"/>
  <line x1="373.52" y1="90.09" x2="373.59" y2="111.1" style="fill: none;stroke: #000;stroke-width: 1.00526px"/>
  <line x1="371.57" y1="90.09" x2="371.63" y2="110.99" style="fill: none;stroke: #000;stroke-width: 1.00526px"/>
  <line x1="358.04" y1="96.8" x2="358.09" y2="110.8" style="fill: none;stroke: #000;stroke-width: 1.00526px"/>
  <polyline points="360.38 110.68 360.23 98.05 369.74 93.2 369.8 110.88" style="fill: none;stroke: #000;stroke-width: 1.00526px"/>
  <line x1="364.81" y1="95.86" x2="364.86" y2="110.78" style="fill: none;stroke: #000;stroke-width: 1.00526px"/>
  <line x1="365.84" y1="95.28" x2="366.01" y2="111.01" style="fill: none;stroke: #000;stroke-width: 1.00526px"/>
  <polyline points="345.12 114.29 362.34 115.04 362.57 114" style="fill: none;stroke: #000;stroke-width: 1.00526px"/>
  <line x1="358.09" y1="113.79" x2="358.1" y2="115.05" style="fill: none;stroke: #000;stroke-width: 1.00526px"/>
  <line x1="345.03" y1="121.06" x2="378.1" y2="121.76" style="fill: none;stroke: #000;stroke-width: 1.00526px"/>
  <line x1="345.03" y1="122.33" x2="378.1" y2="123.02" style="fill: none;stroke: #000;stroke-width: 1.00526px"/>
  <line x1="73.39" y1="737.92" x2="73.64" y2="815.14" style="fill: none;stroke: #000;stroke-width: 1.00526px"/>
  <line x1="75.97" y1="739.44" x2="76.22" y2="817.04" style="fill: none;stroke: #000;stroke-width: 1.00526px"/>
  <line x1="78.54" y1="740.72" x2="78.79" y2="818.98" style="fill: none;stroke: #000;stroke-width: 1.00526px"/>
  <line x1="81.12" y1="742.12" x2="81.37" y2="820.72" style="fill: none;stroke: #000;stroke-width: 1.00526px"/>
  <line x1="83.7" y1="743.47" x2="83.95" y2="822.37" style="fill: none;stroke: #000;stroke-width: 1.00526px"/>
  <line x1="86.27" y1="744.6" x2="86.53" y2="824.27" style="fill: none;stroke: #000;stroke-width: 1.00526px"/>
  <line x1="101.74" y1="752.69" x2="102" y2="834.56" style="fill: none;stroke: #000;stroke-width: 1.00526px"/>
  <line x1="99.16" y1="751.55" x2="99.42" y2="832.63" style="fill: none;stroke: #000;stroke-width: 1.00526px"/>
  <line x1="96.58" y1="749.99" x2="96.84" y2="831.04" style="fill: none;stroke: #000;stroke-width: 1.00526px"/>
  <line x1="94.01" y1="748.81" x2="94.26" y2="829.54" style="fill: none;stroke: #000;stroke-width: 1.00526px"/>
  <line x1="91.43" y1="747.24" x2="91.68" y2="827.63" style="fill: none;stroke: #000;stroke-width: 1.00526px"/>
  <line x1="88.85" y1="746.22" x2="89.11" y2="825.58" style="fill: none;stroke: #000;stroke-width: 1.00526px"/>
  <polyline points="362.95 500.18 379.12 501.93 447.8 501.7" style="fill: none;stroke: #000;stroke-width: 1.00526px"/>
  <polyline points="362.96 504.81 379.13 506.56 447.82 506.34" style="fill: none;stroke: #000;stroke-width: 1.00526px"/>
  <line x1="412.81" y1="506.45" x2="412.95" y2="550.3" style="fill: none;stroke: #000;stroke-width: 1.00526px"/>
  <line x1="412.69" y1="469.79" x2="412.8" y2="501.82" style="fill: none;stroke: #000;stroke-width: 1.00526px"/>
  <line x1="415.35" y1="506.45" x2="415.49" y2="550.29" style="fill: none;stroke: #000;stroke-width: 1.00526px"/>
  <line x1="415.24" y1="469.78" x2="415.34" y2="501.81" style="fill: none;stroke: #000;stroke-width: 1.00526px"/>
  <path d="M831.45,554.29h1.9l0.06,6.92a21.5,21.5,0,0,1-.34,5.29A9.44,9.44,0,0,1,831,571l-1.42-1.49c1.73-2.76,1.95-4.67,1.91-8.33Zm5.77,0.59h1.91l0.13,14.78h-1.92Zm6.08-.57h1.9L845.35,571h-1.9Z" transform="translate(-303.62 -61.55)" style="fill: #231815"/>
  <path d="M854.7,563.23l0.05,5.78H850v1.18h-1.48L848.45,557h1.48L850,567.29h0.9l-0.11-12.73h1.48l0.11,12.73h0.92L853.22,557h1.42l0,4.6,10,0v1.6h-0.86l0.06,6.47c0,0.58,0,1.47-1.48,1.46h-2.27l-0.28-1.73h1.7c0.6,0,.6-0.32.59-0.78l0-5.43H854.7Zm5.78-8.66a10.83,10.83,0,0,1-.14,1.48h4.06v1.59h-3.12a6.51,6.51,0,0,0,3.41,2.18L864,561.5a8.24,8.24,0,0,1-4.21-3.6,7.19,7.19,0,0,1-3.89,3.57L855,559.78a5.33,5.33,0,0,0,3.08-2.13h-2.87v-1.59h3.36a11.53,11.53,0,0,0,.09-1.48h1.83Zm0.54,9.51,0,4.79h-5.19l0-4.79H861Zm-3.59,1.43,0,1.88h2v-1.87h-2Z" transform="translate(-303.62 -61.55)" style="fill: #231815"/>
  <path d="M866.78,555l15.54,0,0,1.75-13.66,0,0.11,11.87,14,0,0,1.73-14,0v0.69h-1.88Zm7.69,6.88a1.24,1.24,0,0,0,0-.3l0-1.58h-2.41a11,11,0,0,1-1.57,1.71l-1.44-1.22a7.83,7.83,0,0,0,2.71-3.53l1.83,0.32a10.71,10.71,0,0,1-.52,1.09H881v1.63H876.3l-0.07,1.63a1.62,1.62,0,0,1,0,.25h5.35v1.64h-4.62c0.68,1.26,2.66,2.37,5.11,2.84l-1,1.69c-2.54-.71-4.61-1.86-5.61-3.9-0.88,1.82-2.33,2.92-5.07,3.82l-1-1.65a6.51,6.51,0,0,0,4.54-2.81h-4.45v-1.64h5Z" transform="translate(-303.62 -61.55)" style="fill: #231815"/>
  <path d="M888.2,556.9c-1.72.11-2.14,0.11-2.74,0.12l-0.35-1.66a25.9,25.9,0,0,0,6.48-.84l0.79,1.73a10.39,10.39,0,0,1-2.47.49l0,2.48h2.26l0,1.7H890V561a13.58,13.58,0,0,0,2.49,3.12l-1.08,1.57a9.84,9.84,0,0,1-1.39-2.41l0.07,7.87h-1.71l-0.07-7.71a12.65,12.65,0,0,1-2.53,4.35L885,565.65a13,13,0,0,0,3.05-4.73h-2.71l0-1.7h2.94Zm10.27,7.52-0.09-9.89h1.83L900.3,564l1.55-.33,0.24,1.8-1.77.39,0,5.27h-1.83l0-4.88-5.9,1.28-0.22-1.8Zm-4.58-4.71a12.15,12.15,0,0,1,3.19,2.45l-1.22,1.4a13.88,13.88,0,0,0-3.06-2.5Zm0.73-4.44a17.45,17.45,0,0,1,3.22,2.51l-1.22,1.45a17.66,17.66,0,0,0-3-2.64Z" transform="translate(-303.62 -61.55)" style="fill: #231815"/>
  <path d="M903.45,568.75a11.51,11.51,0,0,0,7.24-8.55h-7l0-1.88h7.14l0-4.23h2l0,4.23h7.3l0,1.88h-7c0.75,3.77,2.88,7.31,7.46,8.57l-1.23,1.94c-5.35-2.4-6.79-5.81-7.4-7.92-1.19,3.21-3.74,6.5-7.28,7.79Z" transform="translate(-303.62 -61.55)" style="fill: #231815"/>
  <path d="M935.61,560.12v1.47a18.75,18.75,0,0,1-4.46,2.82v0.15h7.39l0,1.73h-7.39l0,3.16a1.47,1.47,0,0,1-1.42,1.46h-3.45L926,569h2.83c0.5,0,.49-0.25.49-0.56l0-2.19h-7.37l0-1.73h7.37v-1.38H930a7.87,7.87,0,0,0,2.59-1.39h-7.82V560.1Zm-11-3a15.75,15.75,0,0,0-1.07-2.18l1.7-.64a10.71,10.71,0,0,1,1.34,2.66l-0.4.16h3.51a13.84,13.84,0,0,0-1.21-2.29l1.74-.67a14.54,14.54,0,0,1,1.36,2.76l-0.58.2h2.85a19.84,19.84,0,0,0,1.14-2.9l2,0.6a17.78,17.78,0,0,1-1.14,2.3h2.23l0,4h-1.78l0-2.37-12.22,0,0,2.37h-1.78l0-4h2.29Z" transform="translate(-303.62 -61.55)" style="fill: #231815"/>
  <path d="M942.46,559.88a22,22,0,0,0-2.31-2.18l0.83-1.46a6.69,6.69,0,0,1,.53.43,14.6,14.6,0,0,0,1.4-2.86l1.64,0.5a26.67,26.67,0,0,1-1.91,3.48l0.71,0.76a27.59,27.59,0,0,0,1.75-3l1.54,0.71c-1,1.8-2.95,4.52-3.33,5l1.84-.07c-0.16-.44-0.25-0.67-0.43-1.06l1.32-.49a16,16,0,0,1,1.2,3.06l-1.4.54c-0.09-.33-0.12-0.42-0.18-0.6-0.31,0-.93.07-1.16,0.07l0.07,7.62h-1.67l-0.07-7.5c-1.64.1-1.81,0.1-2.37,0.13l-0.1-1.62a10.28,10.28,0,0,0,1.07,0C941.7,561,942.19,560.3,942.46,559.88Zm-0.17,4.29a20.54,20.54,0,0,1-.55,4.94l-1.48-.41a19.13,19.13,0,0,0,.54-4.78Zm4.11-.15a15.15,15.15,0,0,1,.33,3.11l-1.44.23a24.12,24.12,0,0,0-.24-3.17Zm2.4,1.1a11.21,11.21,0,0,1-1.11,4.56l-1.62-.83a9,9,0,0,0,1.32-4.07ZM951,554.43a15.24,15.24,0,0,1-3.55,4.36l-1.15-1.33a10.61,10.61,0,0,0,3.08-3.62Zm-1.34,7.88c-0.4,0-1.53.07-1.92,0.07V560.8h0.81a35.73,35.73,0,0,0,1.65-4.17L952,557a22,22,0,0,1-1.67,3.71c0.7,0,2.62-.12,3.43-0.15a13.7,13.7,0,0,0-1.35-1.9l1.43-.86a17.26,17.26,0,0,1,2.89,4.23l-1.59.94a8.91,8.91,0,0,0-.49-1c-1.89.17-2.14,0.19-4.39,0.27a12.25,12.25,0,0,1,2.88,1.54l-0.87,1.41a12.23,12.23,0,0,0-3.3-1.72Zm1.31,3,0,2.88c0,0.36.09,0.41,0.37,0.41h0.9c0.35,0,.51,0,0.6-1.87l1.74,0.36c-0.31,2.47-.43,3.15-1.43,3.14H950.7a1.09,1.09,0,0,1-1.33-.9l0-4H951Zm5.21-6.68a12,12,0,0,1-3.55-4.21l1.54-.71a9.71,9.71,0,0,0,3,3.45Zm-0.64,5.57a19.35,19.35,0,0,1,1.61,4.55l-1.66.6a21.28,21.28,0,0,0-1.47-4.57Z" transform="translate(-303.62 -61.55)" style="fill: #231815"/>
  <path d="M962.47,559.17a20,20,0,0,1-2.78,1.43l-1.09-1.84a17.73,17.73,0,0,0,7.5-4.89h1.72c1.58,1.72,3.33,3.19,7.61,4.91l-1.08,1.84a21.13,21.13,0,0,1-2.67-1.4v1.25l-9.21,0v-1.29Zm-2,3.06,13.1,0,0.08,8.21h-1.87v-0.69h-9.39v0.69h-1.85Zm1.86,1.69,0,4.17h9.39l0-4.17Zm8.68-5.14a19.74,19.74,0,0,1-4.06-3.35,16.57,16.57,0,0,1-3.84,3.34H971Z" transform="translate(-303.62 -61.55)" style="fill: #231815"/>
  <path d="M977.56,554.24l15.55,0,0,1.75-13.67,0,0.11,11.87,14,0v1.73l-14,0v0.69H977.7Zm7.69,6.88a1.26,1.26,0,0,0,0-.3l0-1.58h-2.41a11,11,0,0,1-1.56,1.71l-1.44-1.22a7.81,7.81,0,0,0,2.71-3.53l1.83,0.32a10.82,10.82,0,0,1-.52,1.09h7.84l0,1.63h-4.71L987,560.87a2.08,2.08,0,0,1,0,.25h5.34v1.64h-4.62c0.68,1.26,2.66,2.38,5.11,2.84l-1,1.7c-2.54-.71-4.61-1.86-5.61-3.9-0.88,1.82-2.33,2.91-5.06,3.81l-1-1.65a6.52,6.52,0,0,0,4.54-2.8h-4.45V561.1h5Z" transform="translate(-303.62 -61.55)" style="fill: #231815"/>
  <path d="M995.77,556.42a9.24,9.24,0,0,1,1,3.2l-1.47.72a13.36,13.36,0,0,0-.89-3.24Zm4.31,6.56-0.61.39-0.8-1.2c-0.33,4.81-1.07,6.33-2.36,8.12l-1.44-1.12a9.17,9.17,0,0,0,1.89-4.93c-0.82.4-1.11,0.53-1.87,0.85l-0.37-1.79c1.33-.37,1.63-0.46,2.4-0.74,0-.5,0-1.24,0-1.61l-0.05-5.85h5.94v-1.34h1.81v1.34h6.46v1.54l-12.47,0,0,4.35c0,0.39,0,.63,0,0.87a11.83,11.83,0,0,0,1.26-.65,6.44,6.44,0,0,0-.8-0.8l1-.85,0.9,0.9a7.6,7.6,0,0,0,1.28-1.21h-3.15v-1.37h4a8.33,8.33,0,0,0,.4-1l1.78,0.2c-0.2.43-.28,0.6-0.39,0.81h6.26v1.36h-3.83a7.86,7.86,0,0,0,1.38,1.38c0.57-.63.8-0.9,1-1.13l1.2,0.69a15.54,15.54,0,0,1-1.1,1.17,7.44,7.44,0,0,0,1.5.62l-0.76,1.41a10.38,10.38,0,0,1-1.08-.55l0,3.91h-3.89l0,2.41a1,1,0,0,1-1.19,1.15h-2.09L1002,568.7h1.53c0.28,0,.35-0.05.35-0.27l0-1.7h-3.76Zm2.37,5a10.82,10.82,0,0,1-3.66,2.12l-0.93-1.51a6.52,6.52,0,0,0,3.31-1.69Zm-0.79-5.63v0.92h6.22v-0.92h-6.22Zm0,2.09v1.06h6.22v-1.06h-6.22Zm5.46-3.32a11.56,11.56,0,0,1-1.65-1.87h-1.42a11,11,0,0,1-1.62,1.87h4.69Zm3.42,9.06a15.18,15.18,0,0,1-3.75-2.16l1.12-1.17a8.28,8.28,0,0,0,3.57,1.83Z" transform="translate(-303.62 -61.55)" style="fill: #231815"/>
  <path d="M1028.18,557.5c-0.6,4.06-2,5.94-5.14,7.7l-1.3-1.63c2.86-1.2,3.58-2.86,3.92-4.08l-6.73.55,0,5.5c0,1.59.18,1.84,2.25,1.84h3.62A12.16,12.16,0,0,0,1028,567l0,2.07a20.93,20.93,0,0,1-3,.19h-4.1c-3.27,0-3.86-1.23-3.88-3.63l0-5.46-3.67.29-0.18-1.91,3.83-.28,0-3.87h2l0,3.73Z" transform="translate(-303.62 -61.55)" style="fill: #231815"/>
  <path d="M1035.56,559.37a19.83,19.83,0,0,0-5.34-2.61l0.94-1.73a19.64,19.64,0,0,1,5.47,2.43Zm-5.07,7.3c6.57-.47,10.37-3,12.74-10.52l2,0.9c-2.52,7.55-6.29,10.88-14.07,11.84Z" transform="translate(-303.62 -61.55)" style="fill: #231815"/>
  <path d="M1052.45,560a15.5,15.5,0,0,1,4.1,2.52,10.63,10.63,0,0,0,2.05-4.61h-6.14a13.79,13.79,0,0,1-4.58,4.27l-1.33-1.49a11.67,11.67,0,0,0,5.83-6.9l2.13,0.41a19.85,19.85,0,0,1-.91,1.87h7.49c-0.43,2.74-1.85,10.89-12.23,13.3l-1.15-1.75a13.92,13.92,0,0,0,7.46-3.6,17.53,17.53,0,0,0-4.07-2.66Z" transform="translate(-303.62 -61.55)" style="fill: #231815"/>
  <path d="M1078.63,560.52l0,2.14-15.62,0,0-2.14Z" transform="translate(-303.62 -61.55)" style="fill: #231815"/>
  <path d="M803.38,565.4S803,559.3,800.43,555c0,0-1.1-1.93-2.39.29s-2,6.34-2,13.73c0,0-.35,7.07,3,6.73,0,0,3.53-.35,4.37-7.4A16.12,16.12,0,0,0,803.38,565.4Z" transform="translate(-303.62 -61.55)" style="fill: none;stroke: #000;stroke-width: 1.00526px;fill-rule: evenodd"/>
  <path d="M814.67,567.25c-2.44-3.76-3.25-5.79-2.88-9.89a34.42,34.42,0,0,1,1.46-6.32,4.13,4.13,0,0,0,0-3.35s-0.69-1.22-2.17,0-4.62,6.65-6,12.78c0,0-1.6,5.16-.16,8.76a12.62,12.62,0,0,0,3,5.05,4.56,4.56,0,0,0,3.18,1.48,4.16,4.16,0,0,0,2.72-1.27,6.29,6.29,0,0,0,1.1-1.3C815.5,572.41,816.6,570.23,814.67,567.25Z" transform="translate(-303.62 -61.55)" style="fill: none;stroke: #000;stroke-width: 1.00526px;fill-rule: evenodd"/>
</svg>
