<svg id="レイヤー_1" data-name="レイヤー 1" xmlns="http://www.w3.org/2000/svg" viewBox="0 0 377.1 63.07"><title>top_logo_animate</title><path d="M449.31,186.17h2.37v8.56a26.61,26.61,0,0,1-.48,6.55,11.83,11.83,0,0,1-2.61,5.58L446.83,205c2.19-3.42,2.47-5.78,2.47-10.31v-8.54Zm7.18,0.72h2.39V205.2h-2.39V186.89Zm7.58-.72h2.37v20.65h-2.37V186.17Z" transform="translate(-380.08 -154.14)" style="fill:#231916"/><path d="M477.08,196.92v7.16h-5.87v1.47h-1.84V189.26h1.84V202h1.12V186.19h1.84V202h1.14v-12.7h1.77V195h12.5v2h-1.07v8c0,0.72,0,1.82-1.86,1.82h-2.83l-0.33-2.15h2.12c0.75,0,.75-0.39.75-1v-6.72h-9.29Zm7.29-10.73a13.53,13.53,0,0,1-.2,1.84h5.06v2h-3.88a8,8,0,0,0,4.23,2.69l-0.9,2.06a10.06,10.06,0,0,1-5.21-4.45,9.07,9.07,0,0,1-4.88,4.42l-1.09-2.08c0.9-.31,3-1,3.85-2.65h-3.57v-2H482a13.65,13.65,0,0,0,.13-1.84h2.28ZM484.94,198v5.94h-6.46V198h6.46Zm-4.49,1.77v2.32H483v-2.32h-2.54Z" transform="translate(-380.08 -154.14)" style="fill:#231916"/><path d="M491.66,186.89H511v2.17H494v14.69h17.47v2.15H494v0.85h-2.34V186.89Zm9.5,8.5a1.6,1.6,0,0,0,0-.37l0.07-1.95h-3a13.75,13.75,0,0,1-2,2.13l-1.77-1.51a9.86,9.86,0,0,0,3.42-4.38l2.28,0.39a13.23,13.23,0,0,1-.66,1.36h9.77v2h-5.87l-0.11,2a1.9,1.9,0,0,1,0,.31H510v2h-5.76c0.83,1.55,3.29,2.93,6.33,3.5l-1.21,2.1c-3.15-.87-5.72-2.3-6.94-4.82-1.12,2.25-2.93,3.61-6.35,4.73l-1.25-2c2.21-.48,4.51-1.42,5.69-3.48h-5.54v-2h6.22Z" transform="translate(-380.08 -154.14)" style="fill:#231916"/><path d="M516.43,189.15c-2.15.13-2.67,0.13-3.42,0.15l-0.42-2.06a32.37,32.37,0,0,0,8.08-1.05l1,2.15a13.22,13.22,0,0,1-3.09.61V192h2.82v2.1h-2.82v0.07a16.59,16.59,0,0,0,3.06,3.85L520.26,200a12,12,0,0,1-1.71-3v9.75h-2.12v-9.55a15.76,15.76,0,0,1-3.2,5.39L512.29,200a16.32,16.32,0,0,0,3.86-5.87h-3.37V192h3.66v-2.87Zm12.7,9.29V186.19h2.28v11.74l1.93-.42,0.28,2.23-2.21.48v6.52h-2.28v-6l-7.36,1.6-0.26-2.23Zm-5.65-5.83a14.81,14.81,0,0,1,3.94,3l-1.53,1.73a17,17,0,0,0-3.79-3.09Zm1-5.5a21.46,21.46,0,0,1,4,3.11L526.9,192a22,22,0,0,0-3.74-3.26Z" transform="translate(-380.08 -154.14)" style="fill:#231916"/><path d="M534.32,204.33a14.46,14.46,0,0,0,9.11-10.6h-8.67V191.4h8.89v-5.23h2.43v5.23h9.09v2.32H546.5c0.9,4.66,3.5,9,9.2,10.6l-1.55,2.41c-6.64-3-8.39-7.18-9.13-9.79-1.51,4-4.73,8.06-9.15,9.66Z" transform="translate(-380.08 -154.14)" style="fill:#231916"/><path d="M573.66,193.44v1.82a23.84,23.84,0,0,1-5.59,3.5v0.18h9.2v2.15h-9.2V205a1.86,1.86,0,0,1-1.79,1.82H562l-0.41-2.32h3.53c0.61,0,.61-0.31.61-0.7v-2.72h-9.18v-2.15h9.18v-1.71h1a10.06,10.06,0,0,0,3.24-1.73h-9.75v-2.06h13.49ZM560,189.72a19,19,0,0,0-1.31-2.69l2.13-.79a13.16,13.16,0,0,1,1.64,3.29l-0.5.2h4.38a17.24,17.24,0,0,0-1.49-2.83l2.17-.83a17.68,17.68,0,0,1,1.66,3.42l-0.72.24h3.55a25,25,0,0,0,1.45-3.59l2.52,0.74a21.92,21.92,0,0,1-1.45,2.85h2.78v5h-2.21V191.8H559.33v2.93h-2.21v-5H560Z" transform="translate(-380.08 -154.14)" style="fill:#231916"/><path d="M590.47,193.81a26.62,26.62,0,0,0-2.85-2.69l1.05-1.82a7.81,7.81,0,0,1,.66.53,18.54,18.54,0,0,0,1.77-3.55l2,0.61a33.59,33.59,0,0,1-2.41,4.31c0.55,0.59.75,0.79,0.88,0.94a34.87,34.87,0,0,0,2.21-3.66l1.9,0.88c-1.29,2.23-3.72,5.61-4.2,6.22l2.3-.09c-0.2-.55-0.31-0.83-0.53-1.31l1.64-.61a19.85,19.85,0,0,1,1.47,3.79l-1.75.68c-0.11-.42-0.15-0.53-0.22-0.74-0.39,0-1.16.09-1.45,0.09v9.44h-2.08v-9.29c-2,.13-2.26.13-3,0.17l-0.11-2a13.15,13.15,0,0,0,1.34,0C589.51,195.22,590.12,194.34,590.47,193.81Zm-0.26,5.32a25.46,25.46,0,0,1-.74,6.11l-1.84-.5a23.63,23.63,0,0,0,.72-5.91Zm5.12-.2a18.78,18.78,0,0,1,.37,3.85l-1.79.28a30.17,30.17,0,0,0-.26-3.92Zm3,1.36a14,14,0,0,1-1.42,5.65l-2-1a11.13,11.13,0,0,0,1.69-5ZM601.2,187a19,19,0,0,1-4.47,5.41l-1.42-1.64a13.38,13.38,0,0,0,3.87-4.49Zm-1.75,9.77c-0.5,0-1.9.09-2.39,0.09V195c0.24,0,.46,0,1,0a43.62,43.62,0,0,0,2.1-5.17l2.24,0.48a27.6,27.6,0,0,1-2.13,4.6c0.88,0,3.26-.15,4.27-0.2a16.35,16.35,0,0,0-1.66-2.34l1.79-1.07a21.07,21.07,0,0,1,3.55,5.23l-2,1.16a11.35,11.35,0,0,0-.59-1.18c-2.36.22-2.67,0.24-5.47,0.35a14.94,14.94,0,0,1,3.57,1.91l-1.1,1.75a15.09,15.09,0,0,0-4.09-2.12Zm1.6,3.72v3.57c0,0.44.11,0.5,0.46,0.5h1.12c0.44,0,.63,0,0.77-2.32l2.17,0.44c-0.42,3.07-.57,3.9-1.82,3.9h-3.13c-0.68,0-1.64-.15-1.64-1.12v-5H601Zm6.57-8.28a14.6,14.6,0,0,1-4.38-5.21l1.93-.88a11.86,11.86,0,0,0,3.66,4.27Zm-0.85,6.9a23.69,23.69,0,0,1,1.95,5.63l-2.08.75a25.88,25.88,0,0,0-1.77-5.65Z" transform="translate(-380.08 -154.14)" style="fill:#231916"/><path d="M614.45,192.76a25.88,25.88,0,0,1-3.48,1.77l-1.34-2.28a22.36,22.36,0,0,0,9.4-6.07h2.15c1.95,2.12,4.12,3.94,9.42,6.07l-1.36,2.28a25.11,25.11,0,0,1-3.31-1.73v1.55H614.45v-1.6Zm-2.54,3.79h16.31v10.16H625.9v-0.85H614.21v0.85h-2.3V196.55Zm2.3,2.08v5.17H625.9v-5.17H614.21Zm10.86-6.37a24.19,24.19,0,0,1-5-4.14,21,21,0,0,1-4.82,4.14h9.83Z" transform="translate(-380.08 -154.14)" style="fill:#231916"/><path d="M632.48,186.89h19.36v2.17h-17v14.69h17.48v2.15H634.82v0.85h-2.34V186.89Zm9.5,8.5a1.6,1.6,0,0,0,0-.37l0.06-1.95h-3a13.61,13.61,0,0,1-2,2.13l-1.78-1.51a9.88,9.88,0,0,0,3.42-4.38L641,189.7a12.46,12.46,0,0,1-.66,1.36h9.77v2h-5.87l-0.11,2a2.41,2.41,0,0,1,0,.31h6.66v2H645c0.83,1.55,3.28,2.93,6.33,3.5l-1.2,2.1c-3.15-.87-5.72-2.3-6.94-4.82-1.12,2.25-2.94,3.61-6.35,4.73l-1.25-2c2.21-.48,4.51-1.42,5.69-3.48h-5.54v-2H642Z" transform="translate(-380.08 -154.14)" style="fill:#231916"/><path d="M655,189.56a11.26,11.26,0,0,1,1.25,4l-1.84.9a16.39,16.39,0,0,0-1.07-4Zm5.3,8.12-0.77.48-1-1.49c-0.46,6-1.4,7.84-3,10.05l-1.77-1.38a11.45,11.45,0,0,0,2.41-6.11c-1,.5-1.38.66-2.34,1.05l-0.44-2.21c1.67-.46,2-0.57,3-0.92,0-.61.07-1.53,0.07-2v-7.25h7.4v-1.66h2.25v1.66h8v1.91H658.6v5.39c0,0.48,0,.79,0,1.07a13.92,13.92,0,0,0,1.58-.81,8,8,0,0,0-1-1l1.2-1.05,1.12,1.12a9.85,9.85,0,0,0,1.6-1.51h-3.92v-1.69h5a10.14,10.14,0,0,0,.5-1.25l2.21,0.24c-0.26.53-.35,0.74-0.5,1h7.79V193h-4.78a9.54,9.54,0,0,0,1.71,1.71c0.72-.79,1-1.12,1.25-1.4l1.49,0.85a18.92,18.92,0,0,1-1.38,1.45,9.24,9.24,0,0,0,1.86.77l-1,1.75c-0.5-.24-0.86-0.39-1.34-0.68v4.84h-4.84v3a1.25,1.25,0,0,1-1.49,1.42H663l-0.42-2h1.9c0.35,0,.44-0.07.44-0.33v-2.1h-4.69v-4.64Zm2.89,6.17a13.57,13.57,0,0,1-4.58,2.63l-1.14-1.86a8.24,8.24,0,0,0,4.14-2.1Zm-0.92-7V198H670V196.9h-7.75Zm0,2.59v1.31H670v-1.31h-7.75Zm6.83-4.12a14.31,14.31,0,0,1-2-2.32h-1.77a14,14,0,0,1-2,2.32h5.85Zm4.16,11.21a18.8,18.8,0,0,1-4.64-2.67l1.4-1.45a10.17,10.17,0,0,0,4.42,2.25Z" transform="translate(-380.08 -154.14)" style="fill:#231916"/><path d="M694.8,191c-0.79,5-2.52,7.36-6.48,9.55l-1.6-2c3.57-1.49,4.49-3.55,4.93-5.06l-8.39.7V201c0,2,.2,2.28,2.78,2.28h4.51a15.23,15.23,0,0,0,3.85-.44v2.56a26.49,26.49,0,0,1-3.74.24h-5.1c-4.07,0-4.8-1.51-4.8-4.49v-6.77l-4.58.37-0.2-2.37,4.77-.35v-4.8h2.5v4.62Z" transform="translate(-380.08 -154.14)" style="fill:#231916"/><path d="M704,193.68a24.45,24.45,0,0,0-6.61-3.22l1.18-2.15a24.23,24.23,0,0,1,6.79,3Zm-6.39,9c8.19-.59,12.94-3.74,16-13.05l2.47,1.12c-3.22,9.35-7.95,13.49-17.65,14.69Z" transform="translate(-380.08 -154.14)" style="fill:#231916"/><path d="M724.18,194.67a19.05,19.05,0,0,1,5.08,3.11,13.26,13.26,0,0,0,2.61-5.72h-7.64a17.42,17.42,0,0,1-5.76,5.3l-1.64-1.84a14.7,14.7,0,0,0,7.34-8.56l2.65,0.5a24.77,24.77,0,0,1-1.16,2.32H735c-0.57,3.39-2.43,13.49-15.37,16.49l-1.42-2.17a17.59,17.59,0,0,0,9.33-4.47,21.68,21.68,0,0,0-5-3.29Z" transform="translate(-380.08 -154.14)" style="fill:#231916"/><path d="M757.18,195v2.65H737.73V195h19.45Z" transform="translate(-380.08 -154.14)" style="fill:#231916"/><path d="M398.17,194.4s-1-13.45-7.34-23c0,0-2.73-4.24-5.9.66s-4.9,14-4.83,30.27c0,0-.83,15.58,7.45,14.82,0,0,8.72-.79,10.76-16.34A31.76,31.76,0,0,0,398.17,194.4Z" transform="translate(-380.08 -154.14)" style="fill:#0068b7;fill-rule:evenodd"/><path d="M426.09,198.43c-6.07-8.28-8.06-12.76-7.17-21.79,0,0,1.25-8.54,3.58-13.93,0.95-2.19,1.38-5.17,0-7.38,0,0-1.72-2.69-5.38,0s-11.38,14.69-14.75,28.2c0,0-3.93,11.38-.34,19.31,0,0,2.26,6.82,7.52,11.12,1.1,1,4.22,3.43,7.87,3.24a10.89,10.89,0,0,0,6.72-2.81,14.6,14.6,0,0,0,2.71-2.86C428.19,209.8,430.9,205,426.09,198.43Z" transform="translate(-380.08 -154.14)" style="fill:#0068b7;fill-rule:evenodd"/></svg>